<svg id="visual" viewBox="0 0 900 600" width="900" height="600" xmlns="http://www.w3.org/2000/svg" xmlns:xlink="http://www.w3.org/1999/xlink" version="1.1"><g stroke-width="1" stroke-linejoin="bevel"><path d="M490 267L469 236L394 294Z" fill="#00101c" stroke="#00101c"></path><path d="M469 236L419 186L394 294Z" fill="#0c2435" stroke="#0c2435"></path><path d="M394 294L530 410L490 267Z" fill="#205a7a" stroke="#205a7a"></path><path d="M394 426L530 410L394 294Z" fill="#081a28" stroke="#081a28"></path><path d="M419 186L294 205L394 294Z" fill="#277297" stroke="#277297"></path><path d="M394 294L271 332L394 426Z" fill="#081a28" stroke="#081a28"></path><path d="M576 393L606 279L490 267Z" fill="#277297" stroke="#277297"></path><path d="M490 267L623 230L469 236Z" fill="#112e42" stroke="#112e42"></path><path d="M469 236L490 101L419 186Z" fill="#112e42" stroke="#112e42"></path><path d="M530 410L576 393L490 267Z" fill="#0c2435" stroke="#0c2435"></path><path d="M294 205L271 332L394 294Z" fill="#297ea6" stroke="#297ea6"></path><path d="M606 135L490 101L469 236Z" fill="#19435d" stroke="#19435d"></path><path d="M419 186L330 100L294 205Z" fill="#19435d" stroke="#19435d"></path><path d="M683 319L623 230L606 279Z" fill="#1d4e6b" stroke="#1d4e6b"></path><path d="M606 279L623 230L490 267Z" fill="#081a28" stroke="#081a28"></path><path d="M490 101L382 98L419 186Z" fill="#246688" stroke="#246688"></path><path d="M382 98L330 100L419 186Z" fill="#0c2435" stroke="#0c2435"></path><path d="M318 465L375 485L394 426Z" fill="#277297" stroke="#277297"></path><path d="M394 426L470 530L530 410Z" fill="#1d4e6b" stroke="#1d4e6b"></path><path d="M530 410L577 493L576 393Z" fill="#19435d" stroke="#19435d"></path><path d="M623 230L606 135L469 236Z" fill="#205a7a" stroke="#205a7a"></path><path d="M267 438L318 465L394 426Z" fill="#205a7a" stroke="#205a7a"></path><path d="M271 332L267 438L394 426Z" fill="#246688" stroke="#246688"></path><path d="M576 393L683 319L606 279Z" fill="#1d4e6b" stroke="#1d4e6b"></path><path d="M623 230L713 163L606 135Z" fill="#19435d" stroke="#19435d"></path><path d="M188 96L199 236L294 205Z" fill="#112e42" stroke="#112e42"></path><path d="M294 205L199 236L271 332Z" fill="#19435d" stroke="#19435d"></path><path d="M271 332L201 396L267 438Z" fill="#19435d" stroke="#19435d"></path><path d="M478 600L470 530L360 600Z" fill="#205a7a" stroke="#205a7a"></path><path d="M375 485L470 530L394 426Z" fill="#0c2435" stroke="#0c2435"></path><path d="M576 393L678 420L683 319Z" fill="#112e42" stroke="#112e42"></path><path d="M470 530L577 493L530 410Z" fill="#205a7a" stroke="#205a7a"></path><path d="M162 324L201 396L271 332Z" fill="#277297" stroke="#277297"></path><path d="M577 493L678 420L576 393Z" fill="#1d4e6b" stroke="#1d4e6b"></path><path d="M382 98L388 0L330 100Z" fill="#1d4e6b" stroke="#1d4e6b"></path><path d="M330 100L188 96L294 205Z" fill="#246688" stroke="#246688"></path><path d="M490 101L388 0L382 98Z" fill="#112e42" stroke="#112e42"></path><path d="M509 0L388 0L490 101Z" fill="#246688" stroke="#246688"></path><path d="M199 236L162 324L271 332Z" fill="#246688" stroke="#246688"></path><path d="M587 0L509 0L490 101Z" fill="#19435d" stroke="#19435d"></path><path d="M683 319L713 163L623 230Z" fill="#15384f" stroke="#15384f"></path><path d="M606 135L587 0L490 101Z" fill="#277297" stroke="#277297"></path><path d="M727 133L713 163L829 201Z" fill="#1d4e6b" stroke="#1d4e6b"></path><path d="M267 438L215 482L318 465Z" fill="#15384f" stroke="#15384f"></path><path d="M318 465L360 600L375 485Z" fill="#112e42" stroke="#112e42"></path><path d="M201 396L215 482L267 438Z" fill="#246688" stroke="#246688"></path><path d="M126 376L215 482L201 396Z" fill="#00101c" stroke="#00101c"></path><path d="M283 0L188 96L330 100Z" fill="#277297" stroke="#277297"></path><path d="M199 236L116 289L162 324Z" fill="#246688" stroke="#246688"></path><path d="M713 0L587 0L606 135Z" fill="#112e42" stroke="#112e42"></path><path d="M577 493L696 466L678 420Z" fill="#081a28" stroke="#081a28"></path><path d="M678 420L778 396L683 319Z" fill="#112e42" stroke="#112e42"></path><path d="M666 600L696 466L577 493Z" fill="#205a7a" stroke="#205a7a"></path><path d="M388 0L283 0L330 100Z" fill="#246688" stroke="#246688"></path><path d="M818 288L713 163L683 319Z" fill="#1d4e6b" stroke="#1d4e6b"></path><path d="M713 163L727 133L606 135Z" fill="#277297" stroke="#277297"></path><path d="M360 600L470 530L375 485Z" fill="#246688" stroke="#246688"></path><path d="M470 530L566 600L577 493Z" fill="#00101c" stroke="#00101c"></path><path d="M84 198L116 289L199 236Z" fill="#00101c" stroke="#00101c"></path><path d="M162 324L126 376L201 396Z" fill="#297ea6" stroke="#297ea6"></path><path d="M116 289L126 376L162 324Z" fill="#246688" stroke="#246688"></path><path d="M267 600L360 600L318 465Z" fill="#297ea6" stroke="#297ea6"></path><path d="M478 600L566 600L470 530Z" fill="#112e42" stroke="#112e42"></path><path d="M774 536L778 396L696 466Z" fill="#112e42" stroke="#112e42"></path><path d="M696 466L778 396L678 420Z" fill="#0c2435" stroke="#0c2435"></path><path d="M86 79L84 198L188 96Z" fill="#15384f" stroke="#15384f"></path><path d="M188 96L84 198L199 236Z" fill="#1d4e6b" stroke="#1d4e6b"></path><path d="M116 289L0 295L126 376Z" fill="#19435d" stroke="#19435d"></path><path d="M186 600L267 600L215 482Z" fill="#297ea6" stroke="#297ea6"></path><path d="M215 482L267 600L318 465Z" fill="#081a28" stroke="#081a28"></path><path d="M778 396L818 288L683 319Z" fill="#277297" stroke="#277297"></path><path d="M283 0L185 0L188 96Z" fill="#15384f" stroke="#15384f"></path><path d="M821 126L713 0L727 133Z" fill="#205a7a" stroke="#205a7a"></path><path d="M727 133L713 0L606 135Z" fill="#19435d" stroke="#19435d"></path><path d="M566 600L666 600L577 493Z" fill="#205a7a" stroke="#205a7a"></path><path d="M818 288L829 201L713 163Z" fill="#15384f" stroke="#15384f"></path><path d="M185 0L86 79L188 96Z" fill="#297ea6" stroke="#297ea6"></path><path d="M829 201L821 126L727 133Z" fill="#19435d" stroke="#19435d"></path><path d="M108 527L186 600L215 482Z" fill="#205a7a" stroke="#205a7a"></path><path d="M0 422L108 527L126 376Z" fill="#297ea6" stroke="#297ea6"></path><path d="M126 376L108 527L215 482Z" fill="#112e42" stroke="#112e42"></path><path d="M666 600L774 536L696 466Z" fill="#205a7a" stroke="#205a7a"></path><path d="M900 418L900 300L818 288Z" fill="#00101c" stroke="#00101c"></path><path d="M84 198L0 295L116 289Z" fill="#277297" stroke="#277297"></path><path d="M0 197L0 295L84 198Z" fill="#081a28" stroke="#081a28"></path><path d="M0 84L0 197L84 198Z" fill="#297ea6" stroke="#297ea6"></path><path d="M108 527L118 600L186 600Z" fill="#297ea6" stroke="#297ea6"></path><path d="M0 600L118 600L108 527Z" fill="#246688" stroke="#246688"></path><path d="M818 288L900 209L829 201Z" fill="#277297" stroke="#277297"></path><path d="M829 201L900 209L821 126Z" fill="#0c2435" stroke="#0c2435"></path><path d="M900 418L818 288L778 396Z" fill="#112e42" stroke="#112e42"></path><path d="M900 300L900 209L818 288Z" fill="#205a7a" stroke="#205a7a"></path><path d="M821 126L825 0L713 0Z" fill="#15384f" stroke="#15384f"></path><path d="M0 295L0 422L126 376Z" fill="#081a28" stroke="#081a28"></path><path d="M185 0L68 0L86 79Z" fill="#081a28" stroke="#081a28"></path><path d="M86 79L0 84L84 198Z" fill="#00101c" stroke="#00101c"></path><path d="M900 87L825 0L821 126Z" fill="#112e42" stroke="#112e42"></path><path d="M774 536L900 418L778 396Z" fill="#1d4e6b" stroke="#1d4e6b"></path><path d="M68 0L0 84L86 79Z" fill="#0c2435" stroke="#0c2435"></path><path d="M666 600L806 600L774 536Z" fill="#1d4e6b" stroke="#1d4e6b"></path><path d="M774 536L900 523L900 418Z" fill="#205a7a" stroke="#205a7a"></path><path d="M900 209L900 87L821 126Z" fill="#297ea6" stroke="#297ea6"></path><path d="M0 422L0 522L108 527Z" fill="#081a28" stroke="#081a28"></path><path d="M806 600L900 523L774 536Z" fill="#1d4e6b" stroke="#1d4e6b"></path><path d="M68 0L0 0L0 84Z" fill="#277297" stroke="#277297"></path><path d="M900 87L900 0L825 0Z" fill="#246688" stroke="#246688"></path><path d="M0 522L0 600L108 527Z" fill="#19435d" stroke="#19435d"></path><path d="M806 600L900 600L900 523Z" fill="#1d4e6b" stroke="#1d4e6b"></path></g></svg>