<svg width="134" height="15" viewBox="0 0 134 15" fill="none" xmlns="http://www.w3.org/2000/svg">
<g clip-path="url(#clip0_701_4033)">
<path d="M11.6727 8.56166H10.6329C10.3915 8.56166 10.2058 8.36664 10.2058 8.11311V7.05998C10.2058 6.80645 10.3915 6.61143 10.6329 6.61143H11.6727C11.9141 6.61143 12.0997 6.4164 12.0997 6.16288V3.15953C12.0997 2.906 11.9141 2.71097 11.6727 2.71097H10.6329C10.3915 2.71097 10.2058 2.51595 10.2058 2.26242V1.2093C10.2058 0.955765 10.0201 0.760742 9.77873 0.760742H1.16315C0.921764 0.760742 0.736084 0.955765 0.736084 1.2093V6.16288C0.736084 6.4164 0.921764 6.61143 1.16315 6.61143H2.20296C2.44435 6.61143 2.63003 6.80645 2.63003 7.05998V8.11311C2.63003 8.36664 2.44435 8.56166 2.20296 8.56166H1.16315C0.921764 8.56166 0.736084 8.75669 0.736084 9.0102V13.9638C0.736084 14.2173 0.921764 14.4123 1.16315 14.4123H9.77873C10.0201 14.4123 10.2058 14.2173 10.2058 13.9638V12.9107C10.2058 12.6571 10.3915 12.4621 10.6329 12.4621H11.6727C11.9141 12.4621 12.0997 12.2671 12.0997 12.0136V9.0102C12.0997 8.75669 11.9141 8.56166 11.6727 8.56166ZM2.63003 12.4621V9.0102C2.63003 8.75669 2.8157 8.56166 3.05708 8.56166H9.77873C10.0201 8.56166 10.2058 8.75669 10.2058 9.0102V12.0136C10.2058 12.2671 10.0201 12.4621 9.77873 12.4621H2.63003ZM2.63003 6.16288V2.71097H9.77873C10.0201 2.71097 10.2058 2.906 10.2058 3.15953V6.16288C10.2058 6.4164 10.0201 6.61143 9.77873 6.61143H3.05708C2.8157 6.61143 2.63003 6.4164 2.63003 6.16288ZM15.8851 12.4621V2.71097H23.0339C23.2753 2.71097 23.4609 2.906 23.4609 3.15953V12.0136C23.4609 12.2671 23.2753 12.4621 23.0339 12.4621H15.8851ZM13.9912 13.9638C13.9912 14.2173 14.1769 14.4123 14.4183 14.4123H23.0339C23.2753 14.4123 23.4609 14.2173 23.4609 13.9638V12.9107C23.4609 12.6571 23.6466 12.4621 23.888 12.4621H24.9278C25.1692 12.4621 25.3549 12.2671 25.3549 12.0136V3.15953C25.3549 2.906 25.1692 2.71097 24.9278 2.71097H23.888C23.6466 2.71097 23.4609 2.51595 23.4609 2.26242V1.2093C23.4609 0.955765 23.2753 0.760742 23.0339 0.760742H14.4183C14.1769 0.760742 13.9912 0.955765 13.9912 1.2093V13.9638ZM29.1402 1.2093V2.26242C29.1402 2.51595 28.9546 2.71097 28.7132 2.71097H27.6734C27.432 2.71097 27.2463 2.906 27.2463 3.15953V6.16288C27.2463 6.4164 27.432 6.61143 27.6734 6.61143H28.7132C28.9546 6.61143 29.1402 6.80645 29.1402 7.05998V8.11311C29.1402 8.36664 28.9546 8.56166 28.7132 8.56166H27.6734C27.432 8.56166 27.2463 8.75669 27.2463 9.0102V12.0136C27.2463 12.2671 27.432 12.4621 27.6734 12.4621H28.7132C28.9546 12.4621 29.1402 12.6571 29.1402 12.9107V13.9638C29.1402 14.2173 29.3259 14.4123 29.5673 14.4123H36.2889C36.5303 14.4123 36.716 14.2173 36.716 13.9638V12.9107C36.716 12.6571 36.716 12.4621 36.716 12.4621H36.2889H29.5673C29.3259 12.4621 29.1402 12.2671 29.1402 12.0136V9.0102C29.1402 8.75669 29.3259 8.56166 29.5673 8.56166H34.822V6.61143H29.5673C29.3259 6.61143 29.1402 6.4164 29.1402 6.16288V3.15953C29.1402 2.906 29.3259 2.71097 29.5673 2.71097H36.2889C36.5303 2.71097 36.716 2.71097 36.716 2.71097V2.26242V1.2093C36.716 0.955765 36.5303 0.760742 36.2889 0.760742H29.5673C29.3259 0.760742 29.1402 0.955765 29.1402 1.2093ZM46.0541 12.4621H47.0941C47.3353 12.4621 47.5211 12.6571 47.5211 12.9107V13.9638C47.5211 14.2173 47.7068 14.4123 47.9482 14.4123H50.8819C51.1233 14.4123 51.309 14.2173 51.309 13.9638V12.9107C51.309 12.6571 51.4947 12.4621 51.7361 12.4621H52.7759C53.0169 12.4621 53.2029 12.2671 53.2029 12.0136V10.9604C53.2029 10.7069 53.3886 10.5119 53.63 10.5119H54.6698C54.9112 10.5119 55.0969 10.3169 55.0969 10.0633V0.760742H53.2029V10.0633C53.2029 10.3169 53.0169 10.5119 52.7759 10.5119H51.7361C51.4947 10.5119 51.309 10.7069 51.309 10.9604V12.0136C51.309 12.2671 51.1233 12.4621 50.8819 12.4621H47.9482C47.7068 12.4621 47.5211 12.2671 47.5211 12.0136V10.9604C47.5211 10.7069 47.3353 10.5119 47.0941 10.5119H46.0541C45.8129 10.5119 45.627 10.3169 45.627 10.0633V0.760742H43.7331V10.0633C43.7331 10.3169 43.9189 10.5119 44.1602 10.5119H45.2C45.4414 10.5119 45.627 10.7069 45.627 10.9604V12.0136C45.627 12.2671 45.8129 12.4621 46.0541 12.4621ZM66.0309 6.61143H64.9909C64.7497 6.61143 64.5638 6.4164 64.5638 6.16288V5.10976C64.5638 4.85622 64.3782 4.66121 64.1368 4.66121H59.3091C59.0677 4.66121 58.882 4.85622 58.882 5.10976V6.16288C58.882 6.4164 58.6964 6.61143 58.455 6.61143H57.4152C57.1738 6.61143 56.9881 6.80645 56.9881 7.05998V12.0136C56.9881 12.2671 57.1738 12.4621 57.4152 12.4621H58.455C58.6964 12.4621 58.882 12.6571 58.882 12.9107V13.9638C58.882 14.2173 59.0677 14.4123 59.3091 14.4123H66.458V12.4621H59.3091C59.0677 12.4621 58.882 12.2671 58.882 12.0136V7.05998C58.882 6.80645 59.0677 6.61143 59.3091 6.61143H64.1368C64.3782 6.61143 64.5638 6.80645 64.5638 7.05998V8.11311C64.5638 8.36664 64.3782 8.56166 64.1368 8.56166H59.829V10.5119H64.1368C64.3782 10.5119 64.5638 10.3169 64.5638 10.0633V9.0102C64.5638 8.75669 64.7497 8.56166 64.9909 8.56166H66.0309C66.2721 8.56166 66.458 8.36664 66.458 8.11311V7.05998C66.458 6.80645 66.2721 6.61143 66.0309 6.61143ZM70.2515 5.10976V6.16288C70.2515 6.4164 70.0659 6.61143 69.8245 6.61143H68.7847C68.5433 6.61143 68.3576 6.80645 68.3576 7.05998V14.4123H70.2515V7.05998C70.2515 6.80645 70.4372 6.61143 70.6786 6.61143H75.5063C75.7477 6.61143 75.9333 6.80645 75.9333 7.05998V14.4123H77.8273V7.05998C77.8273 6.80645 77.6413 6.61143 77.4002 6.61143H76.3604C76.119 6.61143 75.9333 6.4164 75.9333 6.16288V5.10976C75.9333 4.85622 75.7477 4.66121 75.5063 4.66121H70.6786C70.4372 4.66121 70.2515 4.85622 70.2515 5.10976ZM82.0478 14.4123H88.2495V12.4621H82.0478C81.8064 12.4621 81.6207 12.2671 81.6207 12.0136V7.05998C81.6207 6.80645 81.8064 6.61143 82.0478 6.61143H86.3555V4.66121H82.0478C81.8064 4.66121 81.6207 4.46617 81.6207 4.21264V0.760742H79.7268V4.21264C79.7268 4.46617 79.9124 4.66121 80.1538 4.66121H81.1936C81.435 4.66121 81.6207 4.85622 81.6207 5.10976V6.16288C81.6207 6.4164 81.435 6.61143 81.1936 6.61143H80.1538C79.9124 6.61143 79.7268 6.80645 79.7268 7.05998V12.0136C79.7268 12.2671 79.9124 12.4621 80.1538 12.4621H81.1936C81.435 12.4621 81.6207 12.6571 81.6207 12.9107V13.9638C81.6207 14.2173 81.8064 14.4123 82.0478 14.4123ZM97.7109 13.9638V12.9107C97.7109 12.6571 97.8966 12.4621 98.138 12.4621H99.1778C99.419 12.4621 99.6048 12.2671 99.6048 12.0136V4.66121H97.7109V12.0136C97.7109 12.2671 97.525 12.4621 97.2838 12.4621H92.456C92.2146 12.4621 92.0289 12.2671 92.0289 12.0136V4.66121H90.135V12.0136C90.135 12.2671 90.3206 12.4621 90.562 12.4621H91.6018C91.8432 12.4621 92.0289 12.6571 92.0289 12.9107V13.9638C92.0289 14.2173 92.2146 14.4123 92.456 14.4123H97.2838C97.525 14.4123 97.7109 14.2173 97.7109 13.9638ZM103.398 5.10976V6.16288C103.398 6.4164 103.213 6.61143 102.971 6.61143H101.932C101.69 6.61143 101.504 6.80645 101.504 7.05998V14.4123H103.398V7.05998C103.398 6.80645 103.584 6.61143 103.825 6.61143H108.653C108.895 6.61143 109.08 6.80645 109.08 7.05998V8.56166H110.974V7.05998C110.974 6.80645 110.788 6.61143 110.547 6.61143H109.507C109.266 6.61143 109.08 6.4164 109.08 6.16288V5.10976C109.08 4.85622 108.895 4.66121 108.653 4.66121H103.825C103.584 4.66121 103.398 4.85622 103.398 5.10976ZM121.916 6.61143H120.876C120.635 6.61143 120.449 6.4164 120.449 6.16288V5.10976C120.449 4.85622 120.264 4.66121 120.022 4.66121H115.195C114.953 4.66121 114.768 4.85622 114.768 5.10976V6.16288C114.768 6.4164 114.582 6.61143 114.341 6.61143H113.301C113.059 6.61143 112.874 6.80645 112.874 7.05998V12.0136C112.874 12.2671 113.059 12.4621 113.301 12.4621H114.341C114.582 12.4621 114.768 12.6571 114.768 12.9107V13.9638C114.768 14.2173 114.953 14.4123 115.195 14.4123H122.343V12.4621H115.195C114.953 12.4621 114.768 12.2671 114.768 12.0136V7.05998C114.768 6.80645 114.953 6.61143 115.195 6.61143H120.022C120.264 6.61143 120.449 6.80645 120.449 7.05998V8.11311C120.449 8.36664 120.264 8.56166 120.022 8.56166H115.715V10.5119H120.022C120.264 10.5119 120.449 10.3169 120.449 10.0633V9.0102C120.449 8.75669 120.635 8.56166 120.876 8.56166H121.916C122.158 8.56166 122.343 8.36664 122.343 8.11311V7.05998C122.343 6.80645 122.158 6.61143 121.916 6.61143ZM126.137 5.10976V6.16288C126.137 6.4164 125.951 6.61143 125.71 6.61143H124.67C124.429 6.61143 124.243 6.80645 124.243 7.05998V8.11311C124.243 8.36664 124.429 8.56166 124.67 8.56166H125.71C125.951 8.56166 126.137 8.75669 126.137 9.0102V10.0633C126.137 10.3169 126.323 10.5119 126.564 10.5119H131.392C131.633 10.5119 131.819 10.7069 131.819 10.9604V12.0136C131.819 12.2671 131.633 12.4621 131.392 12.4621H124.243V14.4123H131.392C131.633 14.4123 131.819 14.2173 131.819 13.9638V12.9107C131.819 12.6571 132.005 12.4621 132.246 12.4621H133.286C133.527 12.4621 133.713 12.2671 133.713 12.0136V10.9604C133.713 10.7069 133.527 10.5119 133.286 10.5119H132.246C132.005 10.5119 131.819 10.3169 131.819 10.0633V9.0102C131.819 8.75669 131.633 8.56166 131.392 8.56166H126.564C126.323 8.56166 126.137 8.36664 126.137 8.11311V7.05998C126.137 6.80645 126.323 6.61143 126.564 6.61143H133.713V4.66121H126.564C126.323 4.66121 126.137 4.85622 126.137 5.10976Z" fill="white"/>
</g>
<defs>
<clipPath id="clip0_701_4033">
<rect width="132.977" height="13.6516" fill="white" transform="translate(0.736328 0.761719)"/>
</clipPath>
</defs>
</svg>
