<svg width="129" height="25" viewBox="0 0 129 25" fill="none" xmlns="http://www.w3.org/2000/svg">
<path fill-rule="evenodd" clip-rule="evenodd" d="M15.6353 1.38997C15.5349 1.3648 15.4137 1.3648 15.3133 1.38997L8.73319 3.39682L8.72977 3.39796C8.42156 3.50088 8.27065 3.8112 8.34564 4.11166L8.34736 4.11856L8.34978 4.12524C8.45039 4.40241 8.75637 4.58815 9.07028 4.48446L15.4839 2.53151L22.0351 4.54338C22.352 4.64814 22.6581 4.45822 22.757 4.16106C22.8624 3.84433 22.6737 3.53673 22.3758 3.43723L15.642 1.39162L15.6353 1.38997ZM5.66542 4.83498C5.63505 4.60148 5.76092 4.37267 5.95537 4.25579L5.96209 4.25176L5.96923 4.2485C6.03416 4.21894 6.10196 4.20173 6.16972 4.19625C6.22568 4.18835 6.28403 4.1888 6.34335 4.1987C6.58253 4.23864 6.76145 4.41867 6.80641 4.6422L10.5707 12.0008H20.5466C20.5669 12.0008 20.5869 12.0019 20.6067 12.004L24.1598 4.65403C24.1875 4.50295 24.2777 4.37118 24.4113 4.2924C24.5735 4.18032 24.7915 4.16296 24.9793 4.2485C25.1672 4.33408 25.2742 4.50491 25.2941 4.68917L25.4103 5.36849C25.4369 5.48737 25.5503 6.27941 25.5503 7.4792C25.5503 8.66762 25.4317 10.2318 24.9969 11.9938C24.5818 13.6574 23.8301 15.6594 22.4647 17.6219C21.0993 19.5845 19.1214 21.5258 16.276 23.0502L16.2751 23.0506L15.7487 23.3436L15.7479 23.3441C15.5687 23.4464 15.3798 23.4464 15.2006 23.3441L15.1998 23.3436L14.6734 23.0506L14.6725 23.0502C11.8272 21.5258 9.84922 19.5845 8.48383 17.6219C7.11885 15.66 6.36681 13.6582 5.99053 11.9727C5.55603 10.2112 5.4375 8.62786 5.4375 7.45954C5.4375 6.25976 5.5509 5.46773 5.57749 5.34884L5.66542 4.83498ZM11.1535 13.1402H20.0017L15.4866 21.6107L11.1535 13.1402ZM6.59238 6.71655C6.58242 6.93871 6.57591 7.18767 6.57591 7.45954C6.57591 8.55261 6.67336 10.0545 7.082 11.692C7.47125 13.2713 8.17176 15.123 9.43589 16.9545C10.5141 18.4998 12.003 20.0461 14.0854 21.3633L6.59238 6.71655ZM16.9124 21.3414C18.9688 20.0327 20.4608 18.5067 21.5321 16.9547C22.7962 15.1234 23.4968 13.2524 23.8861 11.692C24.2948 10.0545 24.3923 8.55261 24.3923 7.45954C24.3923 7.21692 24.387 6.99255 24.3789 6.78918L21.6259 12.4838V12.5063L16.9124 21.3414Z" fill="white"/>
<path fill-rule="evenodd" clip-rule="evenodd" d="M15.3693 1.78826L8.91835 3.75572L8.91752 3.756C8.72408 3.82059 8.6245 4.01298 8.6724 4.21166C8.73968 4.39189 8.93395 4.5 9.12333 4.43744L9.1256 4.43669L15.4831 2.50085L21.9754 4.49461L21.9774 4.4953C22.1664 4.55776 22.362 4.45028 22.4291 4.24869C22.4922 4.05899 22.3853 3.86324 22.1858 3.79534L15.5835 1.78974L15.582 1.78934C15.5173 1.77315 15.4347 1.77279 15.3693 1.78826ZM15.681 1.39572L15.6924 1.39858L22.3098 3.40881L22.3124 3.4097C22.6964 3.5379 22.9586 3.94522 22.815 4.37657C22.6882 4.75771 22.284 5.02282 21.8518 4.88126L15.4826 2.9253L9.2487 4.82351C8.82387 4.96236 8.41994 4.70783 8.28881 4.34657L8.28285 4.33013L8.27861 4.31317C8.1813 3.92321 8.37796 3.50823 8.78846 3.37115L8.79436 3.36918L15.2609 1.39697L15.2658 1.39572C15.397 1.36288 15.5498 1.36288 15.681 1.39572ZM6.31761 4.14542C6.39123 4.13565 6.46735 4.13664 6.54404 4.14945C6.85247 4.20094 7.08794 4.42826 7.15786 4.71558L10.7845 11.8052H20.3852L23.805 4.73104C23.8479 4.54058 23.9652 4.37373 24.1362 4.27059C24.3563 4.12175 24.6436 4.10263 24.8879 4.21386C25.1416 4.32935 25.2856 4.55995 25.3139 4.80263L25.4262 5.45925C25.4584 5.61084 25.5673 6.3993 25.5673 7.5697C25.5673 8.74951 25.4496 10.3015 25.0182 12.0498C24.6061 13.7011 23.8595 15.6906 22.5022 17.6415C21.1448 19.5926 19.1797 21.5203 16.357 23.0327L16.3557 23.0334L15.8439 23.3182L15.8432 23.3186C15.6047 23.4547 15.3423 23.4549 15.1038 23.3188L15.1029 23.3183L14.591 23.0334L14.5902 23.0329C11.7675 21.5206 9.80193 19.5926 8.44454 17.6415C7.08832 15.6921 6.34064 13.703 5.96618 12.0268C5.5355 10.2799 5.41797 8.70995 5.41797 7.55041C5.41797 6.38006 5.52683 5.59162 5.55904 5.43998L5.63988 4.96759C5.61396 4.66297 5.78038 4.37868 6.02473 4.23181L6.04127 4.22186L6.05884 4.21386C6.1423 4.17586 6.22979 4.15322 6.31761 4.14542ZM6.47693 4.54971C6.43925 4.54342 6.4029 4.54323 6.36853 4.54808L6.36254 4.54893L6.35651 4.54941C6.31454 4.55281 6.27224 4.56327 6.23124 4.58146C6.10456 4.65936 6.02843 4.80769 6.04668 4.94803L6.05062 4.97826L5.9583 5.51775L5.95718 5.52275C5.93554 5.6195 5.82465 6.38069 5.82465 7.55041C5.82465 8.68411 5.93972 10.2216 6.36161 11.932L6.36215 11.9342L6.36264 11.9364C6.72704 13.5687 7.45571 15.5086 8.77861 17.4101C10.1017 19.3118 12.0196 21.195 14.7825 22.6753L14.7863 22.6773L15.305 22.9661L15.3057 22.9665C15.4191 23.0312 15.5277 23.0312 15.6411 22.9665L15.6438 22.9649L16.1634 22.6758L16.1643 22.6753C18.9272 21.195 20.8451 19.3118 22.1682 17.4101C23.4914 15.508 24.2205 13.5669 24.6235 11.9522C25.0455 10.2414 25.1606 8.72284 25.1606 7.5697C25.1606 6.39997 25.0497 5.63878 25.0281 5.54205L25.027 5.53704L24.9109 4.85896L24.9103 4.85269C24.8977 4.7361 24.8321 4.63451 24.7191 4.58306C24.5968 4.52737 24.4593 4.54096 24.3616 4.60839L24.3556 4.61254L24.3493 4.61625C24.2701 4.66297 24.216 4.74124 24.1991 4.83304L24.1942 4.86001L20.6321 12.2283L20.4895 12.213C20.4773 12.2117 20.4649 12.211 20.4523 12.211H10.5355L6.77118 4.85227L6.76567 4.82486C6.73796 4.68714 6.62764 4.57487 6.47693 4.54971ZM6.58618 6.04494L14.6293 21.767L14.0012 21.3697C11.9326 20.0611 10.4518 18.5239 9.37924 16.9866L9.37865 16.9858C8.1213 15.164 7.42492 13.3228 7.03814 11.7536C6.63203 10.1261 6.53542 8.63471 6.53542 7.55041C6.53542 7.28031 6.5419 7.0329 6.5518 6.81203L6.58618 6.04494ZM24.3846 6.07273L24.4173 6.88424C24.4254 7.0864 24.4306 7.30936 24.4306 7.55041C24.4306 8.63478 24.3339 10.1264 23.9278 11.754C23.541 13.3037 22.8448 15.164 21.5872 16.986C20.5205 18.5313 19.0364 20.0484 16.9945 21.3479L16.3419 21.7632L21.3085 12.4537V12.4359L24.3846 6.07273ZM6.9423 7.63358C6.94721 8.68735 7.04706 10.11 7.43286 11.6559C7.81024 13.1871 8.48916 14.9814 9.7133 16.7551C10.6429 18.0873 11.8881 19.4211 13.5752 20.599L6.9423 7.63358ZM21.7152 12.5286V12.555L17.446 20.5572C19.0995 19.3938 20.3356 18.0838 21.2523 16.7558C22.4763 14.9824 23.1554 13.1695 23.5332 11.6559C23.9043 10.1687 24.0108 8.7956 24.0227 7.75527L21.7152 12.5286ZM10.9001 12.9236H20.256L15.4818 21.8801L10.9001 12.9236ZM11.5642 13.3294L15.4892 21.002L19.579 13.3294H11.5642Z" fill="white"/>
<path d="M15.6315 1.59253L15.681 1.39572M15.681 1.39572C15.5498 1.36288 15.397 1.36288 15.2658 1.39572L15.2609 1.39697L8.79436 3.36918L8.78846 3.37115C8.37796 3.50823 8.1813 3.92321 8.27861 4.31318L8.28285 4.33013L8.28881 4.34657C8.41994 4.70783 8.82387 4.96236 9.2487 4.82351L15.4826 2.9253L21.8518 4.88126C22.284 5.02282 22.6882 4.75771 22.815 4.37657C22.9586 3.94522 22.6964 3.5379 22.3124 3.4097L22.3098 3.40881L15.6924 1.39858L15.681 1.39572ZM6.05884 4.21386L6.14326 4.39846M6.05884 4.21386C6.1423 4.17586 6.22979 4.15322 6.31761 4.14542C6.39123 4.13565 6.46735 4.13664 6.54404 4.14945C6.85247 4.20094 7.08794 4.42826 7.15786 4.71558L10.7845 11.8052H20.3852L23.805 4.73104C23.8479 4.54058 23.9652 4.37373 24.1362 4.27059C24.3563 4.12175 24.6436 4.10263 24.8879 4.21386C25.1416 4.32935 25.2856 4.55995 25.3139 4.80263L25.4262 5.45925C25.4584 5.61084 25.5673 6.3993 25.5673 7.5697C25.5673 8.74951 25.4496 10.3015 25.0182 12.0498C24.6061 13.7011 23.8595 15.6906 22.5022 17.6415C21.1448 19.5926 19.1797 21.5203 16.357 23.0327L16.3557 23.0334L15.8439 23.3182L15.8432 23.3186C15.6047 23.4547 15.3423 23.4549 15.1038 23.3188L15.1029 23.3183L14.591 23.0334L14.5902 23.0329C11.7675 21.5206 9.80193 19.5926 8.44454 17.6415C7.08832 15.6921 6.34064 13.703 5.96618 12.0268C5.5355 10.2799 5.41797 8.70995 5.41797 7.55041C5.41797 6.38006 5.52683 5.59162 5.55904 5.43998L5.63988 4.96759C5.61396 4.66297 5.78038 4.37868 6.02473 4.23181L6.04127 4.22186L6.05884 4.21386ZM6.14404 4.40019L6.17118 4.45953M8.91835 3.75572L15.3693 1.78826C15.4347 1.77279 15.5173 1.77315 15.582 1.78934L15.5835 1.78974L22.1858 3.79534C22.3853 3.86324 22.4922 4.05899 22.4291 4.24869C22.362 4.45028 22.1664 4.55776 21.9774 4.4953L21.9754 4.49461L15.4831 2.50085L9.1256 4.43669L9.12333 4.43744C8.93395 4.5 8.73968 4.39189 8.6724 4.21166C8.6245 4.01298 8.72408 3.82059 8.91752 3.756L8.91835 3.75572ZM6.36853 4.54808C6.4029 4.54323 6.43925 4.54342 6.47693 4.54971C6.62764 4.57487 6.73796 4.68714 6.76567 4.82486L6.77118 4.85227L10.5355 12.211H20.4523C20.4649 12.211 20.4773 12.2117 20.4895 12.213L20.6321 12.2283L24.1942 4.86001L24.1991 4.83304C24.216 4.74124 24.2701 4.66297 24.3493 4.61625L24.3556 4.61254L24.3616 4.60839C24.4593 4.54096 24.5968 4.52737 24.7191 4.58306C24.8321 4.63451 24.8977 4.7361 24.9103 4.85269L24.9109 4.85896L25.027 5.53704L25.0281 5.54205C25.0497 5.63878 25.1606 6.39997 25.1606 7.5697C25.1606 8.72284 25.0455 10.2414 24.6235 11.9522C24.2205 13.5669 23.4914 15.508 22.1682 17.4101C20.8451 19.3118 18.9272 21.195 16.1643 22.6753L16.1634 22.6758L15.6438 22.9649L15.6417 22.9662C15.5283 23.031 15.4191 23.0312 15.3057 22.9665L15.305 22.9661L14.7863 22.6773L14.7825 22.6753C12.0196 21.195 10.1017 19.3118 8.77861 17.4101C7.45571 15.5086 6.72704 13.5687 6.36264 11.9364L6.36215 11.9342L6.36161 11.932C5.93972 10.2216 5.82465 8.68411 5.82465 7.55041C5.82465 6.38069 5.93554 5.6195 5.95718 5.52275L5.9583 5.51775L6.05062 4.97826L6.04668 4.94803C6.02843 4.80769 6.10456 4.65936 6.23124 4.58146C6.27224 4.56327 6.31454 4.55281 6.35651 4.54941L6.36254 4.54893L6.36853 4.54808ZM6.58618 6.04494L6.5518 6.81203C6.5419 7.0329 6.53542 7.28031 6.53542 7.55041C6.53542 8.63471 6.63203 10.1261 7.03814 11.7536C7.42492 13.3228 8.1213 15.164 9.37865 16.9858L9.37924 16.9866C10.4518 18.5239 11.9326 20.0611 14.0012 21.3697L14.6293 21.767L6.58618 6.04494ZM24.4173 6.88424L24.3846 6.07273L21.3085 12.4359V12.4537L16.3419 21.7632L16.9945 21.3479C19.0364 20.0484 20.5205 18.5313 21.5872 16.986C22.8448 15.164 23.541 13.3037 23.9278 11.754C24.3339 10.1264 24.4306 8.63478 24.4306 7.55041C24.4306 7.30936 24.4254 7.0864 24.4173 6.88424ZM7.43286 11.6559C7.04706 10.11 6.94721 8.68735 6.9423 7.63358L13.5752 20.599C11.8881 19.4211 10.6429 18.0873 9.7133 16.7551C8.48916 14.9814 7.81024 13.1871 7.43286 11.6559ZM21.7152 12.555V12.5286L24.0227 7.75527C24.0108 8.7956 23.9043 10.1687 23.5332 11.6559C23.1554 13.1695 22.4763 14.9824 21.2523 16.7558C20.3356 18.0838 19.0995 19.3938 17.446 20.5572L21.7152 12.555ZM10.9001 12.9236H20.256L15.4818 21.8801L10.9001 12.9236ZM15.4892 21.002L11.5642 13.3294H19.579L15.4892 21.002Z" stroke="white" stroke-width="0.0883426" stroke-miterlimit="10"/>
<path d="M45.2036 8.13662H36.1135C35.9535 8.13662 35.8202 8.19009 35.687 8.32356C35.5804 8.43043 35.5004 8.59064 35.5004 8.75084V16.0414C35.5004 16.2016 35.5537 16.3352 35.687 16.4687C35.7936 16.5755 35.9535 16.6556 36.1135 16.6556H45.2036V17.884H36.1135C35.607 17.884 35.1805 17.6971 34.8339 17.35C34.4874 17.0028 34.3008 16.5755 34.3008 16.0681V8.72418C34.3008 8.21676 34.4874 7.78947 34.8339 7.44231C35.1805 7.09514 35.607 6.9082 36.1135 6.9082H45.2036V8.13662Z" fill="white"/>
<path d="M44.8117 17.6067H44.9262V17.4924V17.0479V16.9336H44.8117H36.1144C35.8673 16.9336 35.6395 16.814 35.4907 16.6649C35.3088 16.4827 35.223 16.28 35.223 16.0417V8.75115C35.223 8.50475 35.3419 8.27701 35.4907 8.12797C35.6726 7.94572 35.8754 7.85931 36.1144 7.85931H44.8117H44.9262V7.745V7.30052V7.18618H44.8117H36.1144C35.6847 7.18618 35.3283 7.34171 35.0319 7.63861C34.7356 7.93545 34.5799 8.293 34.5799 8.72449V16.0684C34.5799 16.4999 34.7356 16.8574 35.0319 17.1543C35.3283 17.4512 35.6847 17.6067 36.1144 17.6067H44.8117ZM34.6376 7.24667C35.0344 6.84918 35.5311 6.63086 36.1144 6.63086H45.4828V8.41462H36.1144C36.0843 8.41462 36.0452 8.41655 36.0013 8.43536C35.9593 8.45321 35.9224 8.48235 35.885 8.51984C35.8504 8.5545 35.8249 8.59453 35.8078 8.63236C35.7915 8.66874 35.7795 8.71091 35.7795 8.75115V16.0417C35.7795 16.0728 35.7816 16.1121 35.8004 16.1562C35.8183 16.1983 35.8475 16.2354 35.885 16.2731C35.9196 16.3077 35.9594 16.3331 35.997 16.3501C36.0329 16.3663 36.0746 16.3783 36.1144 16.3783H45.4828V18.162H36.1144C35.5311 18.162 35.0344 17.9437 34.6376 17.5462C34.2409 17.1488 34.0234 16.6517 34.0234 16.0684V8.72449C34.0234 8.1412 34.2409 7.64412 34.6376 7.24667Z" fill="white" stroke="white" stroke-width="0.0746657" stroke-miterlimit="10"/>
<path d="M62.2628 6.9082V8.13662H53.5192V11.7686H60.5568V13.0237H53.5192V16.6556H62.2628V17.884H52.293V6.93491H62.2628V6.9082Z" fill="white"/>
<path d="M53.9129 8.41525H53.7984V8.52957V11.3775V11.4919H53.9129H60.8359V13.3023H53.9129H53.7984V13.4167V16.2646V16.3789H53.9129H62.542V18.1627H52.0156V6.6582H62.542V6.90916V8.41525H53.9129ZM61.9855 7.32786V7.21353H61.8709H52.6867H52.5722V7.32786V17.493V17.6074H52.6867H61.8709H61.9855V17.493V17.0485V16.9342H61.8709H53.2419V12.747H60.1649H60.2794V12.6327V12.1615V12.0472H60.1649H53.2419V7.85995H61.8709H61.9855V7.74563V7.32786Z" fill="white" stroke="white" stroke-width="0.0746657" stroke-miterlimit="10"/>
<path d="M80.2851 8.72418V11.9288C80.2851 12.4362 80.0987 12.8635 79.752 13.2107C79.4054 13.5578 78.9787 13.7448 78.4725 13.7448H76.7932L80.2319 17.8306H78.6058L75.1671 13.7714H71.1682C71.0882 13.7714 70.8749 13.7448 70.5817 13.718V17.8574H69.3555V6.9082H78.4725C78.9787 6.9082 79.4054 7.09514 79.752 7.44231C80.0987 7.78947 80.2851 8.21676 80.2851 8.72418ZM71.1682 12.5163H78.4456C78.6058 12.5163 78.7391 12.4629 78.8454 12.3561C78.9524 12.2492 79.0056 12.1157 79.0056 11.9555V8.75084C79.0056 8.59064 78.9524 8.4571 78.8454 8.32356C78.7391 8.21676 78.6058 8.13662 78.4456 8.13662H71.1682C71.0083 8.13662 70.8749 8.19009 70.7417 8.32356C70.635 8.43043 70.5551 8.59064 70.5551 8.75084V11.9555C70.5551 12.1157 70.6084 12.2492 70.7417 12.3561C70.8483 12.4629 71.0083 12.5163 71.1682 12.5163Z" fill="white"/>
<path d="M77.545 14.2106L80.8256 18.1086H78.4737L75.0688 14.0899L75.035 14.0494H74.9818H71.1651C71.1208 14.0494 71.0555 14.0441 70.9825 14.0371L70.857 14.025V14.1509V18.1353H69.0742V6.63086H78.4695C79.0523 6.63086 79.5495 6.84917 79.9459 7.24667C80.3429 7.64412 80.5604 8.1412 80.5604 8.72448V11.9291C80.5604 12.5123 80.3429 13.0094 79.9459 13.4069C79.5495 13.8044 79.0523 14.0228 78.4695 14.0228H77.6326H77.3868L77.545 14.2106ZM69.6307 17.4657V17.58H69.7453H70.1859H70.3004V17.4657V13.4142L70.604 13.4418C70.7176 13.4522 70.8202 13.4626 70.9062 13.4714L70.9797 13.4788C71.0295 13.4838 71.0706 13.4877 71.1037 13.4905C71.1201 13.4918 71.1336 13.4927 71.1445 13.4934L71.158 13.494L71.162 13.494L71.1634 13.4941H71.1642H71.1652H75.2932L78.6974 17.5128L78.7319 17.5533H78.7851H79.3858H79.6317L79.4735 17.3654L76.1929 13.4674H78.4695C78.899 13.4674 79.2553 13.3119 79.5516 13.015C79.8478 12.7181 80.0039 12.3606 80.0039 11.9291V8.72448C80.0039 8.293 79.8478 7.93545 79.5516 7.63861C79.2553 7.34171 78.899 7.18618 78.4695 7.18618H69.7453H69.6307V7.30052V17.4657ZM70.5554 12.5659L70.55 12.561C70.3538 12.3969 70.2738 12.1843 70.2738 11.9558V8.75115C70.2738 8.50475 70.3927 8.27701 70.5415 8.12797C70.7234 7.94572 70.9263 7.85931 71.1651 7.85931H78.4426C78.7029 7.85931 78.9025 7.99071 79.0399 8.12797L79.0503 8.13886L79.0599 8.15085C79.1994 8.32525 79.2809 8.51825 79.2809 8.75115V11.9558C79.2809 12.1844 79.2015 12.39 79.0399 12.5523C78.8776 12.7147 78.6719 12.7943 78.4426 12.7943H71.1651C70.9554 12.7943 70.7247 12.7269 70.5554 12.5659ZM70.9129 12.1399L70.9249 12.1496L70.9358 12.1604C70.978 12.2027 71.0599 12.2389 71.1651 12.2389H78.4426C78.484 12.2389 78.5227 12.2335 78.5593 12.2188C78.5966 12.2038 78.6235 12.1821 78.6456 12.1604C78.667 12.1387 78.6891 12.1111 78.7036 12.0736C78.7188 12.0369 78.7243 11.9977 78.7243 11.9558V8.75115C78.7243 8.67219 78.7036 8.60239 78.6408 8.51777L78.6346 8.50909L78.6263 8.50171C78.5565 8.4377 78.4958 8.41462 78.4426 8.41462H71.1651C71.1351 8.41462 71.096 8.41655 71.052 8.43536C71.0102 8.4532 70.9732 8.48235 70.9358 8.51984C70.9012 8.5545 70.8757 8.59453 70.8587 8.63236C70.8423 8.66874 70.8303 8.71091 70.8303 8.75115V11.9558C70.8303 12.0051 70.8384 12.0383 70.8493 12.0625C70.8597 12.0857 70.8775 12.1115 70.9129 12.1399Z" fill="white"/>
<path d="M71.1445 13.4934C71.1336 13.4927 71.1201 13.4918 71.1037 13.4905C71.0706 13.4877 71.0295 13.4838 70.9797 13.4788L70.9062 13.4714C70.8202 13.4626 70.7176 13.4522 70.604 13.4418L70.3004 13.4142V17.4657V17.58H70.1859H69.7453H69.6307V17.4657V7.30052V7.18618H69.7453H78.4695C78.899 7.18618 79.2553 7.34171 79.5516 7.63861C79.8478 7.93545 80.0039 8.293 80.0039 8.72448V11.9291C80.0039 12.3606 79.8478 12.7181 79.5516 13.015C79.2553 13.3119 78.899 13.4674 78.4695 13.4674H76.1929L79.4735 17.3654L79.6317 17.5533H79.3858H78.7851H78.7319L78.6974 17.5128L75.2932 13.4941H71.1652H71.1642M71.1445 13.4934L71.1508 13.3812M71.1445 13.4934L71.158 13.494L71.162 13.494L71.1634 13.4941H71.1642M71.1642 13.4941L71.1652 13.3798M79.0399 8.12797C78.9025 7.99071 78.7029 7.85931 78.4426 7.85931H71.1651C70.9263 7.85931 70.7234 7.94572 70.5415 8.12797C70.3927 8.27701 70.2738 8.50475 70.2738 8.75115V11.9558C70.2738 12.1843 70.3538 12.3969 70.55 12.561L70.5554 12.5659C70.7247 12.7269 70.9554 12.7943 71.1651 12.7943H78.4426C78.6719 12.7943 78.8776 12.7147 79.0399 12.5523C79.2015 12.39 79.2809 12.1844 79.2809 11.9558V8.75115C79.2809 8.51825 79.1994 8.32525 79.0599 8.15085M79.0399 8.12797L79.1179 8.05004M79.0399 8.12797L79.0503 8.13886L79.0599 8.15085M79.0599 8.15085L79.1497 8.0796M70.9129 12.1399L70.9837 12.0519M70.9129 12.1399L70.9249 12.1496L70.9358 12.1604C70.978 12.2027 71.0599 12.2389 71.1651 12.2389H78.4426C78.484 12.2389 78.5227 12.2335 78.5593 12.2188C78.5966 12.2038 78.6235 12.1821 78.6456 12.1604C78.667 12.1387 78.6891 12.1111 78.7036 12.0736C78.7188 12.0369 78.7243 11.9977 78.7243 11.9558V8.75115C78.7243 8.67219 78.7036 8.60239 78.6408 8.51777L78.6346 8.50909L78.6263 8.50171C78.5565 8.4377 78.4958 8.41462 78.4426 8.41462H71.1651C71.1351 8.41462 71.096 8.41655 71.052 8.43536C71.0102 8.4532 70.9732 8.48235 70.9358 8.51984C70.9012 8.5545 70.8757 8.59453 70.8587 8.63236C70.8423 8.66874 70.8303 8.71091 70.8303 8.75115V11.9558C70.8303 12.0051 70.8384 12.0383 70.8493 12.0625M70.9129 12.1399C70.8775 12.1115 70.8597 12.0857 70.8493 12.0625M70.8493 12.0625L70.9461 12.0192M77.545 14.2106L80.8256 18.1086H78.4737L75.0688 14.0899L75.035 14.0494H74.9818H71.1651C71.1208 14.0494 71.0555 14.0441 70.9825 14.0371L70.857 14.025V14.1509V18.1353H69.0742V6.63086H78.4695C79.0523 6.63086 79.5495 6.84917 79.9459 7.24667C80.3429 7.64412 80.5604 8.1412 80.5604 8.72448V11.9291C80.5604 12.5123 80.3429 13.0094 79.9459 13.4069C79.5495 13.8044 79.0523 14.0228 78.4695 14.0228H77.6326H77.3868L77.545 14.2106Z" stroke="white" stroke-width="0.0746657" stroke-miterlimit="10"/>
<path d="M86.8164 6.9082H97.7458V8.13662H92.8943V17.8574H91.6679V8.13662H86.8164V6.9082Z" fill="white"/>
<path d="M93.2842 8.41462H93.1696V8.52893V18.1353H91.3867V8.52893V8.41462H91.272H86.5352V6.63086H98.0211V8.41462H93.2842ZM87.0917 7.745V7.85931H87.2063H91.9432V17.4657V17.58H92.0578H92.4984H92.613V17.4657V7.85931H97.3499H97.4645V7.745V7.30052V7.18618H97.3499H87.2063H87.0917V7.30052V7.745Z" fill="white" stroke="white" stroke-width="0.0746657" stroke-miterlimit="10"/>
<path d="M104.355 17.8574V6.9082H105.582V17.8574H104.355Z" fill="white"/>
<path d="M104.635 17.4657V17.58H104.749H105.19H105.304V17.4657V7.30052V7.18618H105.19H104.749H104.635V7.30052V17.4657ZM104.078 18.1353V6.63086H105.861V18.1353H104.078Z" fill="white" stroke="white" stroke-width="0.0746657" stroke-miterlimit="10"/>
<path d="M122.003 6.9082H123.576L119.017 12.3828L123.602 17.8574H122.003L117.924 12.997H114.406V17.8574H113.152V6.9082H114.406V11.7686H117.924L122.003 6.9082Z" fill="white"/>
<path d="M121.874 6.63086H124.17L119.441 12.3093L119.38 12.3826L119.442 12.4557L124.198 18.1353H121.874L117.829 13.3159L117.795 13.275H117.742H114.799H114.685V13.3893V18.1353H112.875V6.63086H114.685V11.3769V11.4912H114.799H117.742H117.795L117.829 11.4503L121.874 6.63086ZM113.432 17.4657V17.58H113.546H114.014H114.128V17.4657V12.7196H118.055L122.1 17.5391L122.133 17.58H122.187H122.763H123.008L122.851 17.3924L118.656 12.3836L122.827 7.37358L122.983 7.18618H122.74H122.187H122.133L122.1 7.22711L118.055 12.0465H114.128V7.30052V7.18618H114.014H113.546H113.432V7.30052V17.4657Z" fill="white" stroke="white" stroke-width="0.0746657" stroke-miterlimit="10"/>
</svg>
