<svg width="334" height="127" viewBox="0 0 334 127" fill="none" xmlns="http://www.w3.org/2000/svg">
<path d="M124.792 104.529H0V111.229H124.792V104.529Z" fill="white"/>
<mask id="mask0_664_1093" style="mask-type:luminance" maskUnits="userSpaceOnUse" x="139" y="88" width="40" height="39">
<path d="M178.836 88.7715H139.148V127H178.836V88.7715Z" fill="white"/>
</mask>
<g mask="url(#mask0_664_1093)">
<path d="M159.002 88.7698C155.135 88.8178 151.375 89.9758 148.18 92.1102C144.985 94.2351 142.52 97.2405 141.071 100.734C139.623 104.228 139.267 108.066 140.054 111.76C140.841 115.455 142.721 118.834 145.475 121.485C148.228 124.136 151.72 125.936 155.509 126.653C159.308 127.371 163.232 126.979 166.801 125.524C170.37 124.069 173.411 121.619 175.56 118.479C177.699 115.34 178.85 111.655 178.85 107.884C178.822 102.782 176.711 97.9009 172.989 94.3211C169.266 90.7414 164.239 88.7411 159.011 88.7698H159.002Z" fill="#00EDBE"/>
<path d="M166.842 100.808C166.784 99.8507 167.024 98.9033 167.533 98.0801H151.54C151.397 98.0801 151.252 98.1089 151.118 98.1568C150.984 98.2141 150.869 98.2906 150.763 98.3866C150.658 98.4822 150.581 98.6067 150.523 98.7309C150.466 98.8553 150.437 98.999 150.437 99.1426V102.473C150.437 102.617 150.466 102.751 150.523 102.885C150.581 103.009 150.658 103.134 150.763 103.23C150.869 103.325 150.984 103.402 151.118 103.459C151.252 103.517 151.397 103.536 151.54 103.536H167.533C167.034 102.713 166.794 101.765 166.842 100.808Z" fill="#141BEB"/>
<path d="M147.944 107.929C147.991 108.886 147.752 109.834 147.253 110.657H163.245C163.389 110.657 163.533 110.628 163.667 110.58C163.802 110.523 163.917 110.446 164.022 110.351C164.128 110.255 164.204 110.13 164.262 110.006C164.32 109.882 164.348 109.738 164.348 109.594V106.263C164.348 106.12 164.32 105.986 164.262 105.852C164.204 105.728 164.128 105.603 164.022 105.507C163.917 105.412 163.802 105.335 163.667 105.278C163.533 105.22 163.389 105.201 163.245 105.201H147.253C147.752 106.024 147.991 106.972 147.944 107.929Z" fill="#141BEB"/>
<path d="M166.842 115.05C166.784 114.093 167.024 113.146 167.533 112.322H151.54C151.397 112.322 151.252 112.351 151.118 112.399C150.984 112.456 150.869 112.533 150.763 112.628C150.658 112.724 150.581 112.849 150.523 112.973C150.466 113.098 150.437 113.241 150.437 113.385V116.716C150.437 116.859 150.466 116.993 150.523 117.127C150.581 117.252 150.658 117.376 150.763 117.472C150.869 117.567 150.984 117.644 151.118 117.701C151.252 117.759 151.397 117.778 151.54 117.778H167.533C167.034 116.955 166.794 116.007 166.842 115.05Z" fill="#141BEB"/>
</g>
<path d="M200.806 100.025C205.488 100.025 208.538 103.165 208.538 108.343C208.538 112.277 206.198 116.306 200.873 116.306C196.125 116.306 193.16 112.947 193.16 107.989C193.16 103.969 195.703 100.025 200.806 100.025ZM204.279 108.056C204.279 105.079 202.85 103.653 200.873 103.653C198.58 103.653 197.285 105.452 197.285 108.209C197.285 110.697 198.648 112.66 200.787 112.66C203.176 112.66 204.289 110.841 204.289 108.056H204.279ZM217.249 104.811C219.878 104.811 222.132 106.764 222.132 110.458C222.132 114.153 219.724 115.99 216.981 116.019C215.513 116.019 214.285 115.33 214.103 115.043C214.103 115.78 214.189 120.489 213.988 120.623C213.786 120.776 210.735 120.91 210.313 120.69C210.246 120.671 210.38 105.242 210.582 104.744C210.601 104.677 213.921 104.859 213.921 104.859C213.921 104.993 213.901 105.931 213.901 106.055C214.055 105.787 215.235 104.811 217.24 104.811H217.249ZM218.362 110.506C218.362 108.994 217.451 108.19 216.242 108.19C214.726 108.19 214.016 109.147 214.016 110.477C214.016 111.942 215.043 112.832 216.156 112.832C217.556 112.832 218.362 111.875 218.362 110.496V110.506ZM226.814 111.348C226.814 112.526 227.658 113.262 229.203 113.262C230.402 113.262 231.227 112.841 231.812 112.487C232.033 112.707 232.944 114.555 232.973 114.89C232.369 115.445 230.834 116.153 229.03 116.153C225.001 116.153 223.37 113.464 223.37 110.621C223.37 107.615 225.241 104.821 228.742 104.821C231.707 104.821 233.51 107.041 233.51 109.53C233.51 110.219 233.443 110.793 233.309 111.243C232.196 111.396 228.157 111.396 226.824 111.358L226.814 111.348ZM226.795 109.3L230.296 109.233C230.345 108.142 229.788 107.3 228.714 107.3C227.553 107.3 226.795 108.171 226.795 109.3ZM235.151 105.184C235.352 104.897 238.47 104.763 238.672 104.964C238.652 105.433 238.623 106.161 238.604 106.295C239.094 105.558 240.187 104.735 241.991 104.735C244.418 104.735 245.934 106.668 245.934 109.539C245.934 111.032 245.848 114.784 245.752 115.876C245.732 116.096 242.384 116.057 242.317 116.01C242.231 115.962 242.336 110.717 242.336 109.922C242.336 108.726 241.799 107.874 240.638 107.874C239.41 107.874 238.681 108.831 238.681 109.692C238.681 110.449 238.662 115.78 238.595 115.876C238.528 115.962 235.276 115.924 235.208 115.789C235.16 115.703 235.074 109.894 235.141 105.184H235.151ZM256.218 108.142C256.218 111.32 258.175 112.592 260.075 112.592C261.974 112.592 263.106 111.635 263.595 111.281C264.104 111.635 265.092 113.435 265.447 114.191C264.488 115.282 262.233 116.345 259.672 116.345C254.453 116.345 252.026 112.631 252.026 107.989C252.026 103.347 255.192 100.073 260.247 100.073C262.809 100.073 264.66 100.877 265.351 101.538C265.351 101.978 264.411 104.38 263.854 104.849C263.049 104.38 261.696 103.777 260.286 103.777C257.993 103.777 256.208 105.596 256.208 108.132L256.218 108.142ZM266.521 107.166C266.541 106.792 268.018 104.696 271.001 104.696C273.765 104.696 275.904 106.323 275.904 109.568C275.904 111.951 275.789 115.636 275.722 115.77C275.654 115.904 272.843 115.77 272.843 115.77L272.642 114.813C272.489 114.966 271.548 116.038 269.793 116.038C267.366 116.038 266.339 114.612 266.339 112.679C266.339 110.745 268.104 109.415 270.33 109.415C271.356 109.415 271.98 109.702 272.402 110.018C272.421 109.061 272.469 107.75 270.464 107.75C269.083 107.75 268.44 108.726 268.239 108.755C268.037 108.755 266.502 107.424 266.521 107.175V107.166ZM269.332 112.612C269.332 113.349 269.956 113.856 270.781 113.856C271.759 113.856 272.249 113.282 272.249 112.612C272.249 111.836 271.606 111.348 270.781 111.348C269.908 111.348 269.332 111.904 269.332 112.612ZM278.091 105.05C278.293 104.715 281.41 104.916 281.612 105.117C281.593 105.586 281.564 106.189 281.545 106.314C282.034 105.577 282.878 104.801 284.693 104.801C285.938 104.801 286.946 105.424 287.54 106.4C288.299 105.07 289.997 104.801 290.908 104.801C293.719 104.801 294.967 106.649 294.967 109.491C294.967 111.004 294.88 114.851 294.812 115.895C294.795 116.096 291.407 116.096 291.339 116.029C291.273 115.981 291.387 110.889 291.387 109.846C291.387 108.802 291.101 107.931 289.921 107.931C288.74 107.931 288.338 109.128 288.338 109.817C288.338 111.415 288.27 114.708 288.202 115.818C288.183 116.019 284.817 115.885 284.769 115.837C284.681 115.789 284.786 110.592 284.786 109.836C284.786 108.745 284.472 107.922 283.32 107.922C282.168 107.922 281.67 108.898 281.67 109.616C281.67 110.257 281.621 115.885 281.554 115.971C281.487 116.058 278.235 116.019 278.168 115.885C278.12 115.799 278.034 109.75 278.101 105.031L278.091 105.05ZM304.062 104.801C306.688 104.801 308.944 106.754 308.944 110.449C308.944 114.143 306.536 115.981 303.793 116.01C302.324 116.01 301.095 115.32 300.914 115.033C300.914 115.77 300.999 120.479 300.798 120.613C300.597 120.766 297.546 120.901 297.124 120.68C297.056 120.661 297.192 105.232 297.393 104.735C297.413 104.667 300.733 104.849 300.733 104.849C300.733 104.983 300.713 105.921 300.713 106.046C300.866 105.778 302.046 104.801 304.05 104.801H304.062ZM305.174 110.496C305.174 108.984 304.263 108.18 303.054 108.18C301.537 108.18 300.826 109.137 300.826 110.468C300.826 111.932 301.854 112.822 302.966 112.822C304.367 112.822 305.174 111.865 305.174 110.487V110.496ZM321.138 115.837C320.934 116.124 318.039 116.038 317.818 115.837C317.838 115.368 317.818 114.727 317.838 114.574C317.348 115.282 316.205 116.22 314.537 116.22C311.84 116.22 310.546 114.574 310.546 111.463C310.546 109.865 310.767 106.065 310.832 105.012C310.88 104.792 314.22 104.83 314.288 104.897C314.336 105.146 314.104 110.209 314.104 111.08C314.104 112.325 314.642 113.081 315.803 113.081C317.031 113.081 317.674 112.143 317.693 111.166C317.693 110.525 317.778 105.05 317.875 104.964C317.943 104.878 321.175 104.916 321.263 105.05C321.28 105.136 321.215 111.099 321.127 115.837H321.138ZM327.603 116.259C325.378 116.259 323.343 115.368 323.037 115.033C322.853 114.813 323.881 112.392 324.062 112.478C324.419 112.66 325.8 113.655 327.229 113.655C328.121 113.655 328.563 113.339 328.563 112.851C328.563 112.363 328.206 112.095 326.76 111.827C324.263 111.406 323.103 110.362 323.103 108.496C323.103 106.113 324.736 104.735 327.47 104.735C329.522 104.735 331.325 105.424 331.614 105.711C331.815 105.912 330.787 108.247 330.635 108.266C330.518 108.266 329.1 107.395 327.804 107.395C326.932 107.395 326.559 107.816 326.559 108.266C326.559 108.755 326.932 108.975 328.226 109.156C330.875 109.53 332.064 110.449 332.064 112.516C332.064 114.469 330.731 116.249 327.603 116.249V116.259Z" fill="white"/>
<path d="M0 80.5473H34.1815V69.0998H11.4642V45.6593H31.2556V34.8917H11.4642V11.4417H34.1815V0.673828H0V80.5473Z" fill="white"/>
<path d="M55.773 0.673828H38.7925V80.5473H54.756C61.5769 80.5473 66.8055 78.7764 70.4412 75.2159C74.0773 71.6649 75.8903 66.1517 75.8903 58.6669V21.3193C75.8903 14.7438 74.1826 9.6518 70.7769 6.06252C67.3616 2.47325 62.3635 0.673828 55.7634 0.673828H55.773ZM64.4261 59.7868C64.4261 63.2228 63.7547 65.7498 62.402 67.3579C61.0493 68.9658 58.766 69.7698 55.5426 69.7698H50.2566V11.4417H55.5426C58.9194 11.4417 61.2412 12.3031 62.517 14.0259C63.7929 15.7488 64.4261 18.1799 64.4261 21.3193V59.7964V59.7868Z" fill="white"/>
<path d="M171.174 5.27383C167.797 1.76114 163.413 0 158.021 0C155.249 0 152.716 0.469 150.433 1.39743C148.15 2.33542 146.173 3.62757 144.533 5.26426C142.883 6.91055 141.607 8.85354 140.714 11.0933C139.813 13.333 139.362 15.7641 139.362 18.3867V31.892L138.643 32.3034L130.574 36.9457L122.506 32.3034L120.981 31.4229V0.669998H109.517V61.4674C109.517 64.3103 108.845 66.4063 107.493 67.7463C106.14 69.0959 104.461 69.7659 102.437 69.7659C100.413 69.7659 98.7239 69.0959 97.3808 67.7463C96.0281 66.3967 95.3567 64.3103 95.3567 61.4674V0.669998H83.8926V62.5969C83.8926 65.2196 84.3817 67.6314 85.3506 69.8331C86.3197 72.044 87.6724 74.006 89.399 75.7194C91.1259 77.4423 93.0926 78.7823 95.2992 79.7585C97.5056 80.7252 99.8847 81.2134 102.437 81.2134C104.989 81.2134 107.387 80.7252 109.632 79.7585C111.877 78.7919 113.863 77.4423 115.589 75.7194C117.316 73.9964 118.64 72.0344 119.58 69.8331C120.52 67.6314 120.99 65.2196 120.99 62.5969V44.8516L122.516 43.9711L130.584 39.3288L138.652 43.9711L139.371 44.3825V62.3672C139.371 66.0332 139.947 69.0386 141.118 71.3932C142.278 73.7478 143.756 75.6714 145.559 77.1742C147.363 78.6675 149.387 79.7202 151.632 80.3137C153.877 80.9072 156.093 81.2134 158.261 81.2134C160.813 81.2134 163.192 80.706 165.398 79.701C167.605 78.696 169.543 77.3275 171.193 75.6045C172.843 73.8815 174.138 71.9195 175.069 69.7182C176.009 67.5166 176.479 65.1716 176.479 62.7118V57.7729H165.015V61.6972C165.015 63.2669 164.794 64.5784 164.343 65.6215C163.892 66.6648 163.326 67.4881 162.655 68.0909C161.906 68.694 161.101 69.1247 160.237 69.3832C159.374 69.6414 158.568 69.7755 157.82 69.7755C155.191 69.7755 153.378 68.9906 152.371 67.4209C151.363 65.8512 150.855 63.9084 150.855 61.5919V20.7508C150.855 18.0612 151.325 15.8311 152.256 14.0795C153.196 12.328 155.086 11.4474 157.935 11.4474C160.113 11.4474 161.83 12.2705 163.106 13.9168C164.382 15.5631 165.015 17.5061 165.015 19.7458V23.5648H176.479V19.0758C176.479 16.3097 176.009 13.7445 175.069 11.39C174.129 9.0354 172.834 6.99668 171.193 5.27383H171.174Z" fill="white"/>
<path d="M208.605 34.8897H194.436V0.671875H182.971V80.5453H194.436V44.9876H208.605V80.5453H220.069V0.671875H208.605V34.8897Z" fill="white"/>
<path d="M240.775 0.673828L222.903 80.5377H234.367L237.744 63.3761H253.371L256.748 80.5377H268.213L250.33 0.673828H240.775ZM239.768 52.6082L245.39 23.6643H245.61L251.232 52.6082H239.768Z" fill="white"/>
<path d="M282.801 0.673828H271.336V80.5377H282.801V0.673828Z" fill="white"/>
<path d="M319.233 0.673828V48.7987H319.012L301.698 0.673828H290.673V80.5473H302.148V32.5371H302.369L319.907 80.5473H330.7V0.673828H319.233Z" fill="white"/>
</svg>
