<svg width="126" height="51" viewBox="0 0 126 51" fill="none" xmlns="http://www.w3.org/2000/svg">
<path d="M125.673 12.1373V9.92713H122.928V6.49117L122.836 6.51962L120.258 7.30837L120.207 7.32381V9.92725H116.138V8.47691C116.138 7.80159 116.289 7.28479 116.587 6.94014C116.882 6.59962 117.305 6.4265 117.844 6.4265C118.232 6.4265 118.633 6.5178 119.037 6.69785L119.138 6.74307V4.41547L119.091 4.39797C118.714 4.26254 118.201 4.19434 117.566 4.19434C116.766 4.19434 116.038 4.36855 115.404 4.71381C114.769 5.05956 114.27 5.55313 113.92 6.18068C113.572 6.8075 113.395 7.53146 113.395 8.33261V9.92713H111.484V12.1373H113.395V21.4483H116.138V12.1373H120.207V18.0543C120.207 20.4912 121.357 21.7261 123.624 21.7261C123.996 21.7261 124.388 21.6824 124.788 21.597C125.196 21.5092 125.473 21.4215 125.637 21.3279L125.673 21.3065V19.0759L125.561 19.1497C125.412 19.2489 125.227 19.33 125.01 19.3903C124.791 19.4517 124.609 19.4825 124.468 19.4825C123.937 19.4825 123.544 19.3394 123.3 19.057C123.053 18.772 122.928 18.2737 122.928 17.5766V12.1373H125.673ZM105.357 19.4828C104.361 19.4828 103.576 19.1527 103.023 18.5023C102.466 17.8486 102.184 16.9166 102.184 15.7325C102.184 14.5108 102.466 13.5547 103.023 12.8895C103.577 12.2286 104.354 11.8932 105.335 11.8932C106.286 11.8932 107.043 12.2135 107.586 12.8458C108.131 13.4814 108.407 14.4299 108.407 15.6658C108.407 16.9169 108.147 17.8779 107.634 18.5207C107.125 19.1587 106.359 19.4828 105.357 19.4828ZM105.479 9.64959C103.579 9.64959 102.07 10.2063 100.994 11.3042C99.9192 12.4022 99.374 13.9217 99.374 15.8209C99.374 17.6248 99.9062 19.0757 100.956 20.1328C102.005 21.1902 103.434 21.7258 105.201 21.7258C107.043 21.7258 108.522 21.1614 109.597 20.0483C110.672 18.9364 111.217 17.4312 111.217 15.5764C111.217 13.7443 110.706 12.2826 109.697 11.2326C108.688 10.1821 107.269 9.64959 105.479 9.64959ZM94.9507 9.64959C93.6584 9.64959 92.5894 9.98014 91.7728 10.6319C90.9512 11.2875 90.5345 12.1474 90.5345 13.1879C90.5345 13.7288 90.6245 14.2092 90.8015 14.6167C90.9796 15.0256 91.2552 15.3855 91.6213 15.6876C91.9847 15.9873 92.5456 16.3012 93.2889 16.6206C93.9138 16.8777 94.3798 17.0952 94.6758 17.2666C94.9652 17.4346 95.1705 17.6035 95.2865 17.768C95.3992 17.9289 95.4563 18.1492 95.4563 18.421C95.4563 19.1951 94.8767 19.5717 93.6839 19.5717C93.2415 19.5717 92.7369 19.4793 92.1841 19.2972C91.6352 19.1178 91.1172 18.8552 90.6482 18.5184L90.5343 18.4367V21.0781L90.5761 21.0976C90.9643 21.2767 91.4537 21.4279 92.0305 21.5468C92.6063 21.6658 93.1294 21.7263 93.5839 21.7263C94.9862 21.7263 96.1155 21.3942 96.9395 20.7386C97.7687 20.0784 98.189 19.1982 98.189 18.1217C98.189 17.3451 97.9627 16.6792 97.5168 16.1421C97.0739 15.6094 96.3052 15.1203 95.2331 14.688C94.3789 14.3451 93.8317 14.0605 93.606 13.8421C93.3884 13.631 93.2779 13.3326 93.2779 12.9546C93.2779 12.6196 93.4143 12.3511 93.6942 12.1338C93.9764 11.9153 94.3692 11.8042 94.8618 11.8042C95.3189 11.8042 95.7866 11.8764 96.2517 12.0179C96.7165 12.1594 97.1247 12.3489 97.4655 12.5808L97.5776 12.6574V10.1518L97.5345 10.1333C97.2202 9.99849 96.8056 9.88312 96.3021 9.78951C95.8008 9.69651 95.3462 9.64959 94.9507 9.64959ZM83.3824 19.4828C82.3868 19.4828 81.6015 19.1527 81.0483 18.5023C80.4915 17.8486 80.21 16.9168 80.21 15.7325C80.21 14.5108 80.4919 13.5547 81.0489 12.8895C81.6021 12.2286 82.3795 11.8932 83.3604 11.8932C84.3113 11.8932 85.0685 12.2135 85.6111 12.8458C86.1564 13.4814 86.4329 14.4299 86.4329 15.6658C86.4329 16.9169 86.1727 17.8779 85.6596 18.5207C85.1501 19.1587 84.3844 19.4828 83.3824 19.4828ZM83.5047 9.64959C81.6044 9.64959 80.0953 10.2063 79.02 11.3042C77.9449 12.4022 77.3994 13.9217 77.3994 15.8209C77.3994 17.6255 77.9319 19.0757 78.9815 20.1328C80.0311 21.1902 81.4595 21.7258 83.2268 21.7258C85.0681 21.7258 86.5473 21.1614 87.6228 20.0483C88.6978 18.9364 89.2428 17.4312 89.2428 15.5764C89.2428 13.7443 88.7315 12.2826 87.7226 11.2326C86.7132 10.1821 85.2939 9.64959 83.5047 9.64959ZM73.2348 11.9224V9.92713H70.5248V21.448H73.2348V15.5546C73.2348 14.5525 73.4621 13.7293 73.9104 13.1074C74.3531 12.493 74.9429 12.1817 75.6631 12.1817C75.9072 12.1817 76.1812 12.2219 76.478 12.3015C76.7717 12.3807 76.9845 12.4666 77.1099 12.5571L77.2238 12.6396V9.90744L77.1799 9.88859C76.9276 9.78137 76.5705 9.72727 76.1187 9.72727C75.4377 9.72727 74.8283 9.9461 74.3062 10.3769C73.848 10.7556 73.5169 11.2749 73.2637 11.9224H73.2348ZM65.6715 9.64959C64.4282 9.64959 63.3193 9.91619 62.376 10.4417C61.4308 10.9685 60.6998 11.7205 60.2024 12.6768C59.7073 13.6308 59.4559 14.7451 59.4559 15.9878C59.4559 17.0764 59.6996 18.0753 60.1814 18.9557C60.6634 19.8376 61.3457 20.5275 62.2093 21.006C63.0718 21.4839 64.0685 21.7262 65.1721 21.7262C66.4601 21.7262 67.5597 21.4687 68.4413 20.9609L68.4769 20.9405V18.4576L68.363 18.5408C67.9636 18.8317 67.5174 19.0639 67.0372 19.2312C66.5582 19.3984 66.1215 19.4828 65.7385 19.4828C64.6752 19.4828 63.8215 19.1501 63.2018 18.4941C62.5809 17.8373 62.266 16.9149 62.266 15.7543C62.266 14.5863 62.5943 13.6403 63.2415 12.9422C63.8866 12.2462 64.7419 11.8932 65.7833 11.8932C66.674 11.8932 67.542 12.1948 68.3632 12.7905L68.4769 12.873V10.257L68.4402 10.2363C68.1312 10.0633 67.7097 9.92045 67.1864 9.81213C66.6654 9.70405 66.1558 9.64959 65.6715 9.64959ZM57.5894 9.92725H54.8793V21.448H57.5894V9.92725ZM56.2621 5.01932C55.816 5.01932 55.427 5.17116 55.1074 5.47205C54.7865 5.77378 54.6237 6.15369 54.6237 6.60205C54.6237 7.04335 54.7845 7.41633 55.1024 7.71004C55.4183 8.00291 55.8085 8.15135 56.2622 8.15135C56.7158 8.15135 57.1075 8.00291 57.4271 7.71053C57.7488 7.41633 57.9119 7.04347 57.9119 6.60205C57.9119 6.16938 57.7532 5.79336 57.4404 5.4842C57.1278 5.17566 56.7312 5.01932 56.2621 5.01932ZM49.5003 9.07723V21.448H52.2661V5.37199H48.4381L43.5726 17.3128L38.8509 5.37199H34.8672V21.4479H37.4663V9.07601H37.5555L42.5415 21.448H44.5029L49.4111 9.07723H49.5003Z" fill="white"/>
<path d="M12.7484 12.7489H-0.000488281V0H12.7484V12.7489Z" fill="#F1511B"/>
<path d="M26.8243 12.7489H14.0757V0H26.8243V12.7489Z" fill="#80CC28"/>
<path d="M12.748 26.8298H-0.000488281V14.0811H12.748V26.8298Z" fill="#00ADEF"/>
<path d="M26.8243 26.8298H14.0757V14.0811H26.8243V26.8298Z" fill="#FBBC09"/>
<path d="M40.1068 36.3555H38.3049V43.7666H36.8791V36.3555H35.7667V35.1803H36.8791V34.5693C36.8791 33.6083 37.1246 32.9084 37.6155 32.4697C38.1169 32.0205 38.916 31.7959 40.0128 31.7959V32.9867C39.3861 32.9867 38.9421 33.1121 38.681 33.3628C38.4303 33.603 38.3049 34.0052 38.3049 34.5693V35.1803H40.1068V36.3555ZM45.514 43.9076C44.7097 43.9076 43.9785 43.7248 43.3204 43.3592C42.6728 42.9936 42.161 42.4766 41.7849 41.8081C41.4193 41.1291 41.2365 40.3457 41.2365 39.4578C41.2365 38.5804 41.4245 37.8074 41.8006 37.1389C42.1871 36.4599 42.7093 35.9429 43.3674 35.5877C44.0255 35.2221 44.7619 35.0393 45.5767 35.0393C46.3914 35.0393 47.1278 35.2221 47.7859 35.5877C48.444 35.9429 48.961 36.4547 49.3371 37.1232C49.7236 37.7917 49.9168 38.5699 49.9168 39.4578C49.9168 40.3457 49.7183 41.1291 49.3214 41.8081C48.9349 42.4766 48.4074 42.9936 47.7389 43.3592C47.0704 43.7248 46.3287 43.9076 45.514 43.9076ZM45.514 42.6541C46.0258 42.6541 46.5063 42.534 46.9555 42.2938C47.4046 42.0535 47.765 41.6932 48.0366 41.2127C48.3186 40.7322 48.4596 40.1472 48.4596 39.4578C48.4596 38.7684 48.3239 38.1834 48.0523 37.7029C47.7807 37.2224 47.4255 36.8673 46.9868 36.6375C46.5481 36.3972 46.0728 36.2771 45.561 36.2771C45.0387 36.2771 44.5582 36.3972 44.1195 36.6375C43.6912 36.8673 43.3465 37.2224 43.0854 37.7029C42.8242 38.1834 42.6937 38.7684 42.6937 39.4578C42.6937 40.1576 42.819 40.7478 43.0697 41.2283C43.3309 41.7088 43.6756 42.0692 44.1038 42.3094C44.5321 42.5392 45.0022 42.6541 45.514 42.6541ZM53.2173 36.5748C53.468 36.0839 53.8232 35.7026 54.2828 35.431C54.7528 35.1594 55.3221 35.0236 55.9906 35.0236V36.4965H55.6146C54.0164 36.4965 53.2173 37.3635 53.2173 39.0974V43.7666H51.7915V35.1803H53.2173V36.5748ZM65.2765 43.8763C64.5557 43.8763 63.9081 43.7509 63.3336 43.5002C62.7695 43.2391 62.3256 42.8839 62.0018 42.4348C61.678 41.9752 61.5108 41.4477 61.5004 40.8523H63.0202C63.0725 41.3641 63.2814 41.7976 63.647 42.1528C64.023 42.4975 64.5662 42.6698 65.2765 42.6698C65.9554 42.6698 66.4882 42.5027 66.8747 42.1684C67.2716 41.8237 67.4701 41.385 67.4701 40.8523C67.4701 40.4345 67.3552 40.095 67.1254 39.8338C66.8956 39.5727 66.6083 39.3742 66.2636 39.2384C65.9189 39.1026 65.4541 38.9564 64.8691 38.7997C64.1484 38.6117 63.5686 38.4237 63.1299 38.2357C62.7016 38.0476 62.3308 37.7552 62.0175 37.3582C61.7145 36.9509 61.5631 36.4077 61.5631 35.7287C61.5631 35.1333 61.7145 34.6058 62.0175 34.1462C62.3204 33.6866 62.7434 33.3315 63.2866 33.0808C63.8402 32.8301 64.4722 32.7047 65.1825 32.7047C66.2061 32.7047 67.0418 32.9606 67.6894 33.4725C68.3475 33.9843 68.7183 34.6633 68.8019 35.5094H67.235C67.1828 35.0915 66.9634 34.7259 66.577 34.4126C66.1905 34.0888 65.6786 33.9269 65.0415 33.9269C64.4461 33.9269 63.9603 34.0835 63.5843 34.3969C63.2083 34.6998 63.0202 35.1281 63.0202 35.6817C63.0202 36.0786 63.1299 36.4025 63.3493 36.6532C63.5791 36.9038 63.8559 37.0971 64.1797 37.2329C64.514 37.3582 64.9788 37.5045 65.5742 37.6716C66.2949 37.8701 66.8747 38.0685 67.3134 38.267C67.7521 38.455 68.1281 38.7527 68.4415 39.1601C68.7549 39.557 68.9116 40.1002 68.9116 40.7896C68.9116 41.3223 68.7705 41.8237 68.4885 42.2938C68.2065 42.7638 67.7886 43.1451 67.235 43.4376C66.6814 43.73 66.0286 43.8763 65.2765 43.8763ZM72.749 36.3555V41.4163C72.749 41.8342 72.8377 42.1319 73.0153 42.3094C73.1929 42.4766 73.501 42.5601 73.9398 42.5601H74.9895V43.7666H73.7047C72.9109 43.7666 72.3155 43.5838 71.9185 43.2182C71.5216 42.8526 71.3231 42.252 71.3231 41.4163V36.3555H70.2107V35.1803H71.3231V33.0181H72.749V35.1803H74.9895V36.3555H72.749ZM76.1844 39.4421C76.1844 38.5647 76.362 37.7969 76.7171 37.1389C77.0723 36.4704 77.558 35.9533 78.1743 35.5877C78.801 35.2221 79.4956 35.0393 80.2582 35.0393C81.0102 35.0393 81.6631 35.2012 82.2167 35.525C82.7703 35.8488 83.1829 36.2562 83.4545 36.7472V35.1803H84.896V43.7666H83.4545V42.1684C83.1725 42.6698 82.7494 43.0876 82.1854 43.4219C81.6318 43.7457 80.9841 43.9076 80.2425 43.9076C79.48 43.9076 78.7906 43.7196 78.1743 43.3436C77.558 42.9675 77.0723 42.44 76.7171 41.761C76.362 41.0821 76.1844 40.3091 76.1844 39.4421ZM83.4545 39.4578C83.4545 38.8102 83.3239 38.2461 83.0628 37.7656C82.8017 37.2851 82.4465 36.9195 81.9974 36.6688C81.5586 36.4077 81.0729 36.2771 80.5402 36.2771C80.0075 36.2771 79.5217 36.4025 79.083 36.6532C78.6443 36.9038 78.2944 37.2694 78.0332 37.7499C77.7721 38.2304 77.6415 38.7945 77.6415 39.4421C77.6415 40.1002 77.7721 40.6747 78.0332 41.1656C78.2944 41.6461 78.6443 42.017 79.083 42.2781C79.5217 42.5288 80.0075 42.6541 80.5402 42.6541C81.0729 42.6541 81.5586 42.5288 81.9974 42.2781C82.4465 42.017 82.8017 41.6461 83.0628 41.1656C83.3239 40.6747 83.4545 40.1054 83.4545 39.4578ZM88.7313 36.5748C88.982 36.0839 89.3372 35.7026 89.7968 35.431C90.2668 35.1594 90.8361 35.0236 91.5046 35.0236V36.4965H91.1286C89.5304 36.4965 88.7313 37.3635 88.7313 39.0974V43.7666H87.3055V35.1803H88.7313V36.5748ZM94.8897 36.3555V41.4163C94.8897 41.8342 94.9785 42.1319 95.1561 42.3094C95.3337 42.4766 95.6418 42.5601 96.0805 42.5601H97.1303V43.7666H95.8455C95.0517 43.7666 94.4563 43.5838 94.0593 43.2182C93.6624 42.8526 93.4639 42.252 93.4639 41.4163V36.3555H92.3515V35.1803H93.4639V33.0181H94.8897V35.1803H97.1303V36.3555H94.8897ZM106.473 35.1803V43.7666H105.047V42.4975C104.775 42.9362 104.394 43.2809 103.903 43.5316C103.423 43.7718 102.89 43.8919 102.305 43.8919C101.636 43.8919 101.036 43.7562 100.503 43.4846C99.9703 43.2025 99.5473 42.7847 99.2339 42.2311C98.931 41.6775 98.7795 41.0037 98.7795 40.2099V35.1803H100.19V40.0219C100.19 40.8679 100.404 41.5208 100.832 41.9804C101.26 42.4296 101.845 42.6541 102.587 42.6541C103.349 42.6541 103.95 42.4191 104.389 41.9491C104.828 41.479 105.047 40.7948 105.047 39.8965V35.1803H106.473ZM110.306 36.7628C110.588 36.2719 111.006 35.8645 111.559 35.5407C112.123 35.2064 112.776 35.0393 113.518 35.0393C114.281 35.0393 114.97 35.2221 115.586 35.5877C116.213 35.9533 116.704 36.4704 117.059 37.1389C117.414 37.7969 117.592 38.5647 117.592 39.4421C117.592 40.3091 117.414 41.0821 117.059 41.761C116.704 42.44 116.213 42.9675 115.586 43.3436C114.97 43.7196 114.281 43.9076 113.518 43.9076C112.787 43.9076 112.139 43.7457 111.575 43.4219C111.021 43.0876 110.598 42.675 110.306 42.1841V47.8404H108.88V35.1803H110.306V36.7628ZM116.135 39.4421C116.135 38.7945 116.004 38.2304 115.743 37.7499C115.482 37.2694 115.127 36.9038 114.677 36.6532C114.239 36.4025 113.753 36.2771 113.22 36.2771C112.698 36.2771 112.212 36.4077 111.763 36.6688C111.324 36.9195 110.969 37.2903 110.698 37.7813C110.437 38.2618 110.306 38.8206 110.306 39.4578C110.306 40.1054 110.437 40.6747 110.698 41.1656C110.969 41.6461 111.324 42.017 111.763 42.2781C112.212 42.5288 112.698 42.6541 113.22 42.6541C113.753 42.6541 114.239 42.5288 114.677 42.2781C115.127 42.017 115.482 41.6461 115.743 41.1656C116.004 40.6747 116.135 40.1002 116.135 39.4421ZM122.508 43.9076C121.85 43.9076 121.26 43.7979 120.738 43.5786C120.215 43.3488 119.803 43.0354 119.5 42.6385C119.197 42.2311 119.03 41.7663 118.998 41.244H120.471C120.513 41.6723 120.712 42.0222 121.067 42.2938C121.432 42.5654 121.908 42.7012 122.493 42.7012C123.036 42.7012 123.464 42.581 123.777 42.3408C124.091 42.1005 124.247 41.7976 124.247 41.432C124.247 41.056 124.08 40.7792 123.746 40.6016C123.412 40.4136 122.895 40.2308 122.195 40.0532C121.558 39.8861 121.035 39.7189 120.628 39.5518C120.231 39.3742 119.886 39.1183 119.594 38.7841C119.312 38.4393 119.171 37.9902 119.171 37.4366C119.171 36.9979 119.301 36.5957 119.563 36.2301C119.824 35.8645 120.195 35.5773 120.675 35.3683C121.156 35.149 121.704 35.0393 122.32 35.0393C123.271 35.0393 124.038 35.2796 124.623 35.7601C125.208 36.2405 125.522 36.8986 125.564 37.7343H124.138C124.106 37.2851 123.924 36.9247 123.589 36.6532C123.266 36.3816 122.827 36.2458 122.273 36.2458C121.761 36.2458 121.354 36.3555 121.051 36.5748C120.748 36.7942 120.597 37.0814 120.597 37.4366C120.597 37.7186 120.685 37.9536 120.863 38.1416C121.051 38.3192 121.281 38.4655 121.552 38.5804C121.834 38.6848 122.221 38.8049 122.712 38.9407C123.328 39.1079 123.83 39.275 124.216 39.4421C124.603 39.5988 124.932 39.8391 125.203 40.1629C125.485 40.4867 125.631 40.9097 125.642 41.432C125.642 41.9021 125.511 42.3251 125.25 42.7012C124.989 43.0772 124.618 43.3749 124.138 43.5942C123.668 43.8032 123.125 43.9076 122.508 43.9076Z" fill="#D2D2D2"/>
</svg>
