<svg width="445" height="69" viewBox="0 0 445 69" fill="none" xmlns="http://www.w3.org/2000/svg">
<g clip-path="url(#clip0_1144_101)">
<path d="M443.913 33.927C443.191 32.6826 442.217 31.6986 440.986 30.9645C439.754 30.2356 438.42 29.8711 436.972 29.8711C435.524 29.8711 434.189 30.2356 432.957 30.9645C431.731 31.6986 430.752 32.6826 430.031 33.927C429.304 35.1662 428.943 36.5199 428.943 37.9777C428.943 39.4356 429.304 40.7945 430.031 42.0337C430.752 43.2781 431.731 44.2621 432.957 44.9962C434.189 45.7251 435.524 46.0896 436.972 46.0896C438.42 46.0896 439.754 45.7251 440.986 44.9962C442.217 44.2621 443.191 43.2781 443.913 42.0337C444.639 40.7945 445 39.4408 445 37.9777C445 36.5147 444.639 35.1662 443.913 33.927ZM443.165 41.6067C442.521 42.7105 441.656 43.5904 440.563 44.2361C439.471 44.8869 438.275 45.2149 436.972 45.2149C435.668 45.2149 434.472 44.8869 433.38 44.2361C432.288 43.5904 431.422 42.7105 430.778 41.6067C430.134 40.5029 429.814 39.295 429.814 37.9777C429.814 36.6605 430.134 35.4578 430.778 34.354C431.422 33.2502 432.288 32.3703 433.38 31.7194C434.472 31.0738 435.668 30.7458 436.972 30.7458C438.275 30.7458 439.471 31.0738 440.563 31.7194C441.656 32.3703 442.521 33.2502 443.165 34.354C443.81 35.4578 444.129 36.6657 444.129 37.9777C444.129 39.2898 443.81 40.5029 443.165 41.6067Z" fill="white"/>
<mask id="mask0_1144_101" style="mask-type:luminance" maskUnits="userSpaceOnUse" x="429" y="30" width="16" height="16">
<path d="M436.955 45.3193C440.959 45.3193 444.205 42.0395 444.205 37.9936C444.205 33.9478 440.959 30.668 436.955 30.668C432.951 30.668 429.705 33.9478 429.705 37.9936C429.705 42.0395 432.951 45.3193 436.955 45.3193Z" fill="white"/>
</mask>
<g mask="url(#mask0_1144_101)">
<path d="M444.01 37.8733L438.492 36.9205C438.311 36.8841 438.188 36.7383 438.193 36.5509L438.863 31.0371C438.863 30.9694 438.765 30.9694 438.739 31.0371L436.698 36.5352C436.631 36.7227 436.456 36.8685 436.26 36.8997L429.876 37.462C429.804 37.4724 429.788 37.5714 429.855 37.587L435.987 38.3992C436.168 38.4357 436.291 38.5814 436.286 38.7689L435.178 44.9907C435.178 45.0584 435.276 45.0584 435.297 44.9907L437.775 38.7793C437.842 38.5918 438.017 38.4461 438.213 38.4148L443.985 37.9931C444.129 37.9671 444.211 37.9098 444.01 37.8681V37.8733Z" fill="white"/>
</g>
<path d="M297.497 36.1623L297.486 36.1884L284.408 64.9235H304.53L308.065 56.0151H318.897L317.974 64.9235H338.988L340.833 1.93945H313.074L297.497 36.1623ZM320.2 43.4203H313.069L322.715 19.1264L320.2 43.4203Z" fill="white"/>
<path d="M377.125 0.501953C371.648 0.501953 366.876 1.35583 362.81 3.0688C358.75 4.77656 355.514 7.20283 353.102 10.3528C350.691 13.5028 349.212 17.3296 348.676 21.8281C348.264 25.2437 348.676 28.1229 349.902 30.4659C351.129 32.8036 352.716 34.6155 354.663 35.9067C356.611 37.198 359.126 38.5933 362.202 40.0928C364.088 41.1706 365.552 42.0401 366.603 42.7013C367.649 43.3626 368.504 44.1384 369.169 45.0391C369.834 45.9398 370.102 46.9603 369.968 48.1006C369.854 49.0586 369.571 49.8239 369.117 50.3915C368.669 50.9642 368.138 51.412 367.541 51.7452C366.938 52.0732 366.16 52.2398 365.212 52.2398C364.088 52.2398 363.217 51.9378 362.609 51.3391C361.996 50.7403 361.615 49.8239 361.465 48.5952C361.311 47.3664 361.409 45.7888 361.754 43.8676L341.632 45.7576C340.73 52.7761 341.946 57.967 345.28 61.3253C348.614 64.6835 354.174 66.3653 361.95 66.3653C367.474 66.3653 372.323 65.5114 376.496 63.7984C380.67 62.0907 384.015 59.6019 386.524 56.3322C389.034 53.0624 390.549 49.1783 391.064 44.6798C391.455 41.2591 390.971 38.3799 389.611 36.0421C388.255 33.7044 386.591 31.856 384.617 30.5075C382.644 29.159 380.093 27.7064 376.965 26.1444C375.085 25.0666 373.616 24.2284 372.565 23.6244C371.508 23.0256 370.653 22.2915 369.988 21.422C369.318 20.5525 369.056 19.5476 369.19 18.4074C369.282 17.6264 369.504 16.9548 369.87 16.382C370.23 15.8145 370.756 15.3615 371.447 15.0335C372.132 14.7055 372.858 14.5389 373.626 14.5389C374.925 14.5389 375.847 15.0908 376.399 16.205C376.945 17.314 377.032 19.2457 376.651 22.0052L395.511 20.5681C396.34 13.8516 395.279 8.82208 392.326 5.49507C389.379 2.16806 384.313 0.501953 377.125 0.501953Z" fill="white"/>
<path d="M400.696 1.93945L397.125 16.9657H407.75L396.455 64.9235H416.845L427.852 16.9657H438.477L441.976 1.93945H400.696Z" fill="white"/>
<path d="M242.524 33.5734L250.269 33.4953L251.629 33.4849L263.367 33.4016L273.73 33.1725C273.91 33.1412 274.06 33.0944 274.173 33.0371H274.204C274.457 32.9225 274.436 32.7663 273.828 32.6518L263.914 31.1679C264.991 27.6587 266.712 23.0717 268.046 20.5205C269.613 17.5215 271.164 16.022 272.699 16.022C273.761 16.022 274.457 16.5947 274.781 17.7349C275.106 18.8752 275.204 20.3122 275.07 22.0512C274.931 23.7902 274.565 25.8624 273.962 28.2574L294.326 27.0912C295.501 21.5097 295.692 16.7144 294.903 12.695C294.11 8.67547 292.219 5.55673 289.23 3.33872C286.241 1.12072 282.124 0.00650692 276.884 0.00650692C270.458 0.00650692 264.748 1.65699 259.755 4.95797C254.752 8.25374 250.702 12.9501 247.599 19.0366C246.239 21.6971 245.08 24.566 244.106 27.6431L239.937 27.2422C239.149 27.0912 238.633 26.4612 238.639 25.6646L242.797 0.313696C242.797 0.0221267 242.374 0.0169201 242.266 0.308489L241.591 2.00063L242.122 -0.00390625L231.991 25.4094C231.698 26.2113 230.945 26.836 230.1 26.9714L208.927 27.5025L207.484 27.5389H202.527L205.412 18.4378H224.535L229.477 3.0836H189.505L181.503 28.195L166.518 28.5698L165.725 28.5907L186.955 3.0836H165.101L148.89 25.4042L155.996 3.0836H135.142L126.717 29.5747L122.033 29.6945L121.445 29.7101L130.041 3.0836H109.187L100.581 30.2359L93.599 30.413L93.1455 30.4234L101.813 3.0836H80.9589L72.1628 30.9545L68.5145 31.043L68.1899 31.0534C69.8543 27.8513 71.0858 24.2328 71.8794 20.1872C72.91 14.9182 72.2504 10.7477 69.9058 7.68102C67.5612 4.61954 63.2637 3.08881 57.008 3.08881H28.6875L19.4483 32.2769L0.28971 32.7611C-0.0143128 32.808 -0.0916067 33.2297 0.191804 33.2818H19.1237V33.2922L66.8965 33.3078C66.8965 33.3078 66.9017 33.3078 66.9017 33.3026H92.2335L99.6073 33.3078L120.281 33.3182L120.863 33.313H125.527L165.482 33.3287H179.864L217.682 33.3443L218.738 33.3391H219.712L228.905 33.3443C229.688 33.4901 230.208 34.1201 230.203 34.9219L224.004 68.4835L224.762 65.6147L224.236 68.4679C224.236 68.7595 224.653 68.7595 224.762 68.4731L236.845 35.1301C237.139 34.3335 237.891 33.7139 238.726 33.5786L242.529 33.5525C242.529 33.5525 242.524 33.563 242.524 33.5734ZM44.8677 17.7037H48.6912C49.6033 17.7037 50.2371 17.9484 50.5978 18.4378C50.9533 18.9324 50.9946 19.88 50.7214 21.291C50.134 24.2952 49.2683 26.7111 48.1192 28.5542C46.9701 30.3921 45.7283 31.3085 44.3937 31.3085H40.5702L44.8677 17.7037Z" fill="white"/>
<path d="M291.876 38.7856L272.409 36.8956C271.517 40.1393 270.626 42.7009 269.734 44.5909C268.838 46.4809 267.92 47.8607 266.977 48.7302C266.034 49.5997 265.035 50.0318 263.968 50.0318C262.84 50.0318 262.041 49.5528 261.577 48.5948C261.108 47.6368 261.021 46.0175 261.314 43.7371C261.629 41.316 262.087 38.796 262.685 36.1875H241.996C241.728 37.6193 241.496 39.0824 241.3 40.5871C240.502 46.6475 240.615 51.5365 241.635 55.254C242.656 58.9715 244.614 61.6998 247.499 63.4388C250.39 65.1778 254.327 66.0473 259.315 66.0473C265.133 66.0473 270.203 64.9226 274.526 62.6734C278.85 60.4242 282.405 57.3106 285.193 53.3172C287.981 49.3289 290.207 44.4868 291.876 38.7856Z" fill="white"/>
<path d="M18.2526 36.0469V36.0573L6.29266 36.0625C5.96802 36.125 6.05562 36.5936 6.39572 36.6508L17.8971 37.1611L8.31261 67.4374H29.1459L35.8963 45.929H43.5432C48.3354 45.929 52.6845 44.9345 56.5956 42.9404C59.8265 41.2899 62.6142 38.9938 64.9639 36.0469H18.2526Z" fill="white"/>
<path d="M119.403 36.0469H98.7397L96.0756 44.4555C95.1326 47.3972 94.1587 49.4955 93.1539 50.7503C92.1491 52.0103 91.0103 52.6351 89.7375 52.6351C88.4647 52.6351 87.733 52.0415 87.5424 50.844C87.3517 49.6465 87.7382 47.5222 88.7018 44.4555L91.3658 36.0469H70.5531L67.786 44.82C66.0855 50.0942 65.6218 54.5042 66.3793 58.0603C67.1419 61.6164 69.0691 64.3291 72.1608 66.1982C75.2526 68.0674 79.5862 68.9994 85.1668 68.9994C93.293 68.9994 99.9352 66.9948 105.093 62.9806C110.246 58.9663 114.075 52.911 116.569 44.82L119.403 36.0469Z" fill="white"/>
<path d="M124.657 36.0469L114.676 67.4374H135.514L140.178 52.7861L145.47 46.6579L144.975 67.4374H166.813L165.592 36.0469H124.657Z" fill="white"/>
<path d="M168.992 67.4374H209.937L214.884 52.0832H194.772L198.039 41.5138H215.059L216.817 36.0469H178.999L168.992 67.4374Z" fill="white"/>
</g>
<defs>
<clipPath id="clip0_1144_101">
<rect width="445" height="69" fill="white"/>
</clipPath>
</defs>
</svg>
