<svg width="306" height="80" viewBox="0 0 306 80" fill="none" xmlns="http://www.w3.org/2000/svg">
<g clip-path="url(#clip0_924_179)">
<path d="M11.616 46.9024C11.616 46.9024 10.9739 48.174 9.39789 49.4516C8.05522 50.4307 6.94584 50.8367 6.01205 51.3621C10.5067 54.5441 18.0949 51.9412 18.0949 51.9412C18.2699 51.8815 19.321 52.6933 19.4959 52.7471C22.9401 54.4307 24.5161 55.183 28.7768 55.7024C33.9136 56.4009 44.4789 56.6277 33.9136 50.2038C31.8121 48.9262 26.8509 46.1501 26.8509 46.1501C26.8509 46.1501 21.5974 43.3083 19.0287 41.5173C19.0871 39.2546 18.8538 35.7818 17.5111 33.1179C17.3361 33.4074 16.169 36.1292 14.768 38.2695C14.3591 37.9233 13.9508 37.577 13.542 37.171C7.82132 31.8438 5.13658 25.2994 5.77875 17.4815C5.77875 17.1919 6.07036 15.0492 5.89538 15.1071C5.48651 14.9913 3.85223 20.9561 3.67725 21.4773C3.61893 21.7089 3.1517 24.0253 2.97673 24.0253C2.39288 24.0833 -0.000244141 23.62 -0.000244141 23.7937C0.349706 24.4307 2.91841 26.2838 2.91841 26.3418C2.97673 27.7895 2.74342 30.7436 4.26108 35.1447C6.77086 42.5024 11.616 46.9024 11.616 46.9024Z" fill="#FF0003"/>
<path d="M51.4833 55.7601C49.9073 55.3541 46.8137 59.8138 44.2456 64.9123C40.8014 65.3183 38.8749 65.8974 36.5401 67.3422C36.2484 67.5153 40.1592 67.4616 42.9612 68.6198C38.7582 75.0437 32.2793 78.6377 24.7494 78.984C33.972 81.187 42.5523 78.4646 48.8569 71.3959C50.4912 72.5541 51.6583 74.9899 52.3588 77.0735C52.476 77.4198 54.2853 72.0944 51.3666 67.575C51.3666 67.575 52.1255 66.1302 52.3004 65.8377C53.5265 63.2347 53.8764 56.3989 51.4833 55.7601Z" fill="#FF0003"/>
<path d="M9.74784 14.8738C8.11293 18.8696 8.75517 24.198 10.565 24.6034C12.316 24.8929 14.3591 22.5765 15.2929 21.0129C16.8106 18.8696 17.7444 15.8583 17.7444 15.8583C17.7444 15.8583 24.866 16.2058 28.4269 12.8469C28.0763 12.7311 22.8229 12.6732 19.6126 10.9938C23.8739 4.56574 30.0028 1.43798 37.7077 1.26425C32.9798 -0.646799 21.8891 -0.47308 13.892 8.27202C10.74 6.01351 8.93068 1.61231 8.87236 1.90186C7.87963 7.635 11.0316 12.3257 11.0316 12.3257C11.0316 12.3257 10.1561 13.8893 9.74784 14.8738Z" fill="#FF0003"/>
<path d="M30.0032 7.45992C30.0032 9.02351 34.0312 10.5292 35.4322 10.8187C36.8326 11.1083 39.7513 11.3399 39.7513 11.3399C40.8023 14.7566 43.6043 17.3632 43.8959 17.479C43.8959 17.1895 43.3121 13.251 43.8376 11.919C51.1926 13.7143 55.22 18.9847 57.5548 25.1232C57.9054 23.5596 57.3215 10.8766 45.122 6.70709C45.4136 5.83841 46.8729 4.10109 48.7405 3.0008C45.063 2.4796 41.9111 4.68021 40.919 5.49096C40.919 5.49096 38.9341 5.14349 36.716 5.02767C34.0312 4.85394 30.0032 5.6068 30.0032 7.45992Z" fill="#FF0003"/>
<path d="M33.0377 71.3335C34.1464 68.5574 23.5811 68.4977 22.3557 68.3246C22.2968 68.0917 21.0714 63.7514 18.6199 61.7813C18.6199 62.0679 18.7366 66.0082 17.9195 67.5126C11.5566 65.835 6.1282 59.9843 4.66885 54.832C2.74233 66.1813 16.3428 73.0171 16.3428 73.0171C15.2341 75.447 12.666 77.0111 12.4321 77.3037C12.7827 77.4171 17.5105 78.1693 21.363 74.6947C21.3047 74.8082 31.695 74.4619 33.0377 71.3335Z" fill="#FF0003"/>
<path d="M59.3629 54.1918C59.3629 54.1918 59.3629 52.3948 59.3046 51.2963C59.1879 47.6485 58.1375 44.2276 56.5032 40.9858C55.2188 38.4963 53.6428 36.1799 51.658 34.153C51.3664 33.8635 50.7825 33.3423 50.7825 33.3423L49.4398 32.1835C51.9496 29.867 54.0511 29.1142 55.6854 28.7667C55.8027 28.7667 55.8027 28.593 55.6854 28.593C50.082 26.6241 43.7192 28.8246 43.7192 28.8246C43.7192 28.8246 38.2907 25.6396 29.2432 24.7709C26.7917 24.5393 25.7413 26.2187 29.0682 30.4461C32.0452 33.7476 38.6996 36.0061 39.6334 36.4115C40.3922 38.6694 41.6183 41.7381 43.5442 43.4754C43.6025 43.5351 43.6025 43.4754 43.6025 43.4217C43.5442 42.3172 43.6025 40.0008 43.8948 38.4963C45.879 39.6545 48.2727 41.6784 49.9654 43.362C55.6854 48.8067 57.2614 55.1769 56.4442 62.9918C56.4442 63.2246 57.5536 61.4276 58.1958 59.2844C58.5457 57.9531 58.8963 56.3351 58.8963 56.3351C58.8963 56.3351 60.589 56.6814 62.6322 56.5082C60.2391 55.1172 59.3629 54.1918 59.3629 54.1918Z" fill="#FF0003"/>
<path d="M88.7139 40.7953C87.5709 39.8162 86.7327 38.6819 86.1236 37.3207C85.5139 35.9583 85.1327 34.4461 85.209 32.9338C85.2854 31.1195 85.666 29.4562 86.5806 27.9446C87.4951 26.3565 88.7903 25.147 90.3146 24.2401C91.9146 23.3326 93.6674 22.8789 95.4959 22.8789H120.871C122.776 22.8789 124.3 24.467 124.3 26.2813C124.3 28.1714 122.7 29.6831 120.871 29.6831H95.4959C94.5056 29.6831 93.7437 29.9858 93.0577 30.6658C92.3716 31.3464 92.0673 32.1022 92.0673 33.0855C92.0673 34.0682 92.448 34.824 93.2104 35.5804C93.7437 36.0335 94.5056 36.3362 95.4201 36.412C96.3341 36.5625 97.325 36.5625 98.3917 36.5625C98.6202 36.5625 98.7729 36.5625 98.925 36.5625H99.0014C101.744 36.6401 104.412 36.6401 107.155 36.6401H107.993C109.289 36.6401 110.66 36.5625 111.956 36.5625C112.413 36.5625 112.87 36.5625 113.327 36.4849C114.394 36.4114 115.537 36.4849 116.756 36.6401C117.976 36.7894 119.194 37.0938 120.338 37.6968C123.31 39.2073 125.138 41.6311 125.901 44.9565C126.205 46.5446 126.129 48.055 125.748 49.5655C125.367 51.1535 124.528 52.5923 123.462 53.7983C122.471 54.861 121.328 55.6908 120.033 56.2938C118.661 56.8968 117.137 57.2013 115.613 57.2013H89.857C87.9521 57.2013 86.4284 55.6132 86.4284 53.7983C86.4284 51.9117 88.0285 50.3953 89.857 50.3953H115.766C116.68 50.3953 117.518 50.0192 118.281 49.261C118.966 48.4311 119.271 47.452 119.119 46.3177C118.89 45.255 118.28 44.4252 117.366 43.9714C116.299 43.5953 115.003 43.4401 113.48 43.5177C113.022 43.5177 112.565 43.5953 112.108 43.5953C110.812 43.667 109.441 43.667 108.069 43.667H107.231C104.488 43.7446 101.669 43.7446 98.925 43.5953C98.7729 43.5953 98.5444 43.5953 98.3917 43.5953C96.9438 43.667 95.2674 43.5177 93.591 43.2132C91.9146 42.7595 90.2382 42.0073 88.7139 40.7953Z" fill="white"/>
<path d="M137.941 51.3805L135.807 55.3088C135.197 56.4432 134.054 57.1238 132.759 57.1238C130.168 57.1238 128.492 54.3297 129.711 52.0611L143.885 25.9763C144.952 24.0109 147.009 22.8008 149.219 22.8008C151.429 22.8008 153.486 24.0109 154.553 25.9763L168.726 52.0611C169.945 54.3297 168.269 57.1238 165.678 57.1238C164.383 57.1238 163.24 56.4432 162.63 55.3088L160.497 51.3805H137.941ZM149.219 30.5882L141.674 44.4969H156.839L149.219 30.5882Z" fill="white"/>
<path d="M179.776 22.8008C181.681 22.8008 183.205 24.3888 183.205 26.2032V50.2462H209.723C211.628 50.2462 213.152 51.8342 213.152 53.6491C213.152 55.5357 211.552 57.0462 209.723 57.0462H179.776C177.871 57.0462 176.347 55.4581 176.347 53.6491V26.2032C176.347 24.313 177.871 22.8008 179.776 22.8008Z" fill="white"/>
<path d="M229.002 51.3805L226.869 55.3088C226.259 56.4432 225.116 57.1238 223.82 57.1238C221.23 57.1238 219.553 54.3297 220.772 52.0611L234.946 25.9763C236.012 24.0109 238.07 22.8008 240.28 22.8008C242.489 22.8008 244.547 24.0109 245.614 25.9763L259.787 52.0611C261.007 54.3297 259.33 57.1238 256.739 57.1238C255.444 57.1238 254.301 56.4432 253.691 55.3088L251.557 51.3805H229.002ZM240.28 30.5882L232.736 44.4969H247.9L240.28 30.5882Z" fill="white"/>
<path d="M301.317 26.8079C298.497 24.0862 295.22 22.8008 291.563 22.8008H270.836C268.931 22.8008 267.407 24.3888 267.407 26.2032V29.605V50.2462V50.3178V53.7208C267.407 55.6133 269.007 57.1238 270.836 57.1238H291.563C295.22 57.1238 298.575 55.7626 301.317 53.1178C304.059 50.3178 305.358 47.07 305.358 43.4402V36.5626C305.358 32.8563 304.059 29.605 301.317 26.8079ZM298.497 43.3626C298.497 45.0282 298.04 46.4671 297.048 47.5954C295.677 49.2611 293.543 50.1685 291.334 50.1685H274.342V29.5297H291.334C293.543 29.5297 295.677 30.4366 297.048 32.0999C298.04 33.3094 298.575 34.7459 298.575 36.4091V43.3626H298.497Z" fill="white"/>
<path d="M214.209 42.8638C212.572 41.9205 212.012 39.8488 212.957 38.2249L220.995 24.41C221.94 22.7855 224.033 22.2285 225.67 23.1664C227.306 24.1038 227.867 26.1802 226.921 27.8047L218.884 41.616C217.939 43.2399 215.846 43.8011 214.209 42.8638Z" fill="#FF0003"/>
</g>
<defs>
<clipPath id="clip0_924_179">
<rect width="305.454" height="80" fill="white"/>
</clipPath>
</defs>
</svg>
