<svg width="115" height="44" viewBox="0 0 115 44" fill="none" xmlns="http://www.w3.org/2000/svg">
<g clip-path="url(#clip0_742_339)">
<path d="M16.452 37.2051C15.1805 35.8821 13.9867 34.6233 12.793 33.3645C12.851 33.1799 12.909 32.9952 12.967 32.8105C16.0114 33.694 19.0421 34.0478 22.1079 32.875C21.2445 35.2186 19.3325 36.5152 17.6753 38.1916C17.246 37.8461 16.8879 37.5577 16.452 37.2051Z" fill="#3A44B8"/>
<path d="M10.2082 27.7356C8.97463 24.6523 10.2937 21.6365 13.023 20.7609C16.2417 19.7283 20.0958 22.1989 19.5167 26.164C19.45 26.6207 19.6138 27.1111 19.6707 27.5858C20.2212 27.4259 20.9143 27.4254 21.3002 27.0815C25.5635 23.2837 24.7336 22.8526 20.6813 20.9591C17.2796 19.3695 13.6816 18.6999 9.92421 19.8251C9.04948 20.0871 8.09943 20.0986 6.99465 20.2516C6.8896 18.588 6.7434 17.0432 6.73049 15.4972C6.72746 15.1351 7.09017 14.6186 7.42883 14.4272C14.1782 10.6116 20.9626 10.6355 27.7297 14.3787C29.3827 15.2931 28.2174 16.7098 28.2853 18.0572C23.5593 14.9445 18.5634 13.7323 13.0919 15.1863C12.636 15.3075 12.2101 15.5409 11.7702 15.7221C11.7947 15.8895 11.8193 16.0569 11.8438 16.2244C12.4653 16.2244 13.0868 16.2234 13.7083 16.2245C18.7668 16.2339 23.1595 17.9788 26.912 21.3308C27.2417 21.6253 27.5814 22.1869 27.5357 22.5804C26.7149 29.6538 18.7359 33.6514 12.6045 30.0396C11.7016 29.5078 11.0343 28.5777 10.2082 27.7356ZM14.5508 27.3922C16.1335 27.1175 16.9299 26.1613 16.532 24.9734C16.1932 23.9619 15.4245 23.2711 14.4091 23.5791C13.7435 23.781 12.9666 24.5072 12.7688 25.1586C12.4232 26.2971 13.0783 27.1328 14.5508 27.3922Z" fill="#3A44B8"/>
<path d="M76.7058 29.993C76.8131 30.341 76.9901 30.7224 76.879 30.8461C76.3683 31.4142 73.594 30.967 73.1599 30.2741C72.4566 29.1513 71.7412 28.034 71.0921 26.88C70.344 25.55 69.2411 25.253 67.7104 25.6133C67.7104 27.3485 67.7104 29.0805 67.7104 30.9147C66.5997 30.9147 65.6298 30.9147 64.5664 30.9147C64.5664 24.5493 64.5664 18.1784 64.5664 11.7285C65.5632 11.7285 66.5341 11.7285 67.6697 11.7285C67.6697 15.2971 67.6697 18.8207 67.6697 22.3376C69.3026 22.7807 70.3829 22.3043 71.1729 21.0045C71.6387 20.2381 72.1968 19.5277 72.7097 18.7896C73.7524 17.2893 74.9693 16.9745 76.9645 17.8149C75.5446 19.8441 74.1475 21.8407 72.8229 23.7338C74.0661 25.7431 75.3544 27.8254 76.7058 29.993Z" fill="white"/>
<path d="M49.697 18.7317C53.2251 16.1036 57.9944 16.5556 60.1884 19.6433C62.0305 22.2357 61.8911 26.667 59.8908 29.1081C58.046 31.3593 54.3076 32.0935 51.2694 30.8013C48.1655 29.4811 46.6054 25.375 47.9321 21.7033C48.3057 20.6692 49.0525 19.7694 49.697 18.7317ZM58.2273 24.3072C58.0407 21.592 57.2651 20.3456 55.483 19.8972C53.4111 19.3759 51.5519 20.4401 50.9651 22.4832C50.194 25.1683 51.198 27.7731 53.2763 28.4787C55.876 29.3615 57.7831 27.8434 58.2273 24.3072Z" fill="white"/>
<path d="M78.8523 22.8919C79.6892 18.788 81.9976 16.9074 85.8911 17.0419C89.688 17.173 92.502 21.0863 91.34 24.699C91.2498 24.9795 90.6369 25.2467 90.2605 25.2558C88.0334 25.3098 85.8044 25.2822 83.5761 25.2904C83.1175 25.2921 82.659 25.329 82.2034 25.3496C82.3729 28.4136 83.807 28.8904 90.4623 28.2117C91.1911 30.0987 90.9688 30.7552 89.0824 31.0356C87.3243 31.2969 85.4797 31.443 83.7323 31.2058C80.9484 30.8278 79.1019 28.578 78.854 25.7118C78.7769 24.8202 78.8402 23.9165 78.8523 22.8919ZM85.0363 19.6936C82.9652 20.2435 82.2712 21.0259 82.2934 22.8813C84.2397 22.8813 86.1872 22.8813 88.1288 22.8813C88.2742 20.7814 87.5098 19.9524 85.0363 19.6936Z" fill="white"/>
<path d="M97.6025 25.8963C97.6025 27.6378 97.6025 29.2373 97.6025 30.9277C96.4748 30.9277 95.5081 30.9277 94.4609 30.9277C94.4609 26.455 94.4609 22.0246 94.4609 17.2841C95.6172 17.4817 96.6252 17.654 98.1224 17.9098C98.9255 17.7158 100.316 17.1513 101.729 17.0851C104.782 16.9422 106.488 18.1956 106.792 21.2262C107.111 24.397 106.864 27.6242 106.864 30.9253C105.907 30.9253 104.935 30.9253 103.805 30.9253C103.805 29.2209 103.806 27.5241 103.805 25.8273C103.804 24.8799 103.844 23.93 103.787 22.9858C103.709 21.6781 103.523 20.3779 101.986 19.9293C100.421 19.4723 99.0757 19.9878 97.9472 21.0541C97.6953 21.292 97.6313 21.8086 97.6176 22.2016C97.5763 23.3846 97.6026 24.5699 97.6025 25.8963Z" fill="white"/>
<path d="M34.5119 28.4263C35.04 28.3127 35.5517 28.2736 36.0571 28.3137C37.6038 28.4363 39.1527 28.7173 40.691 28.6628C41.2476 28.6431 42.0403 27.949 42.2576 27.3837C42.5983 26.4972 41.8191 26.0542 41.0148 25.8523C39.7804 25.5423 38.5244 25.3046 37.3104 24.9302C35.3672 24.331 34.5163 23.1882 34.4872 21.3268C34.4588 19.5125 35.4139 17.8127 37.2607 17.5342C39.4568 17.203 41.7715 17.2249 43.9754 17.5261C45.4622 17.7293 44.5483 19.1861 44.6873 20.1421C43.134 19.9687 41.6963 19.7867 40.2538 19.6593C39.7893 19.6183 39.2346 19.5831 38.8602 19.7925C38.3851 20.0584 37.7629 20.5616 37.7412 20.9896C37.7209 21.3889 38.327 22.0213 38.7931 22.2015C39.7529 22.5726 40.8022 22.7153 41.8166 22.9432C44.4407 23.5328 45.5478 24.8023 45.5099 27.1875C45.4762 29.3098 44.1255 30.9071 41.6764 31.2124C39.9619 31.4261 38.1661 31.3584 36.4515 31.1089C34.3815 30.8077 34.4021 30.667 34.5119 28.4263Z" fill="white"/>
</g>
<defs>
<clipPath id="clip0_742_339">
<rect width="114.026" height="43.8068" fill="white" transform="translate(0.425781 0.0429688)"/>
</clipPath>
</defs>
</svg>
